<svg xmlns="http://www.w3.org/2000/svg" width="2718" height="509" viewBox="0 0 2718 509" fill="none"><path d="M302.147 0.930725H336.675C381.976 5.43126 424.251 20.9987 463.502 47.633C471.691 53.1664 474.126 60.5443 470.88 69.7667C470.363 71.2423 469.552 72.4966 468.445 73.5295C461.436 79.8007 454.132 80.2434 446.459 74.8575C268.282 -51.7476 38.6074 128.421 116.371 332.863C119.469 341.127 117.404 347.767 110.173 352.784C108.845 353.669 107.443 354.259 105.894 354.555C95.4174 356.104 88.5559 351.898 85.2358 341.938C63.1021 275.168 63.3972 214.448 85.9736 159.704C124.413 66.5942 196.495 13.6945 302.147 1.00451V0.930725Z" fill="black"></path><path d="M813.658 0.930945H986.08C1060.01 10.8911 1109 46.9692 1133.05 109.386C1143.45 136.242 1146.99 163.024 1143.67 189.658C1133.49 272.586 1059.49 341.274 973.98 337.143C969.701 336.922 969.037 338.323 972.062 341.422L1111.36 480.57C1117.48 486.767 1118.29 493.555 1113.87 500.933C1113.13 502.187 1112.09 503.294 1110.84 504.105C1102.5 510.081 1094.76 509.417 1087.53 502.187L928.237 342.824C903.521 318.108 908.685 305.492 943.583 304.901C965.348 304.532 987.113 307.041 1008.43 301.803C1138.36 269.782 1149.87 90.4251 1024.96 42.3211C1006.37 35.1645 977.89 32.0658 939.525 32.9511C897.176 33.9103 854.458 33.8365 811.297 32.7298C807.018 32.656 803.181 30.1475 801.337 26.311C795.434 14.1374 799.566 5.65281 813.658 0.783386V0.930945Z" fill="black"></path><path d="M1359.18 0.930869H1521.28C1561.93 6.75943 1593.5 23.7286 1615.93 51.7647C1638.29 79.7271 1648.1 111.157 1645.45 146.128C1641.9 191.724 1619.62 227.359 1578.6 253.108C1577.49 253.772 1577.2 255.174 1577.86 256.281C1578.09 256.576 1578.31 256.871 1578.6 257.018C1674.59 316.116 1667.14 458.214 1559.35 499.383C1540.75 506.466 1514.12 509.639 1479.37 508.679C1440.78 507.646 1401.02 507.646 1359.92 508.458C1355.57 508.532 1351.44 506.54 1348.85 502.998C1345.02 497.76 1343.76 493.038 1344.94 488.759C1347.08 480.865 1352.32 476.881 1360.51 476.733C1402.71 476.069 1446.83 476.069 1492.72 476.881C1519.06 477.323 1539.5 474.151 1553.89 467.363C1634.45 429.293 1633.71 319.805 1554.92 280.185C1540.46 272.955 1519.06 269.709 1490.8 270.446C1455.02 271.479 1418.35 271.479 1380.8 270.446C1378.07 270.373 1376.67 271.701 1376.67 274.504V369.974C1376.67 378.459 1373.05 384.657 1365.6 388.641C1363.46 389.747 1361.32 390.042 1359.11 389.378C1349.59 386.722 1344.87 380.451 1344.87 370.638C1344.8 258.125 1344.87 140.816 1344.87 18.7854C1344.87 8.82525 1350.4 3.29181 1359.26 0.709534L1359.18 0.930869ZM1376.37 35.7547L1376.82 237.246C1376.82 238.574 1377.85 239.607 1379.18 239.607L1510.13 239.385C1567.68 239.238 1614.24 193.273 1614.16 136.611V135.504C1614.02 78.8417 1567.31 33.0248 1509.77 33.0986L1378.81 33.3199C1377.48 33.3199 1376.45 34.3529 1376.45 35.6809L1376.37 35.7547Z" fill="black"></path><path d="M1880.95 0.930725H1886.56C1895.41 4.54591 1899.84 9.34156 1899.84 15.3177C1899.84 173.869 1899.84 332.199 1899.84 490.234C1899.84 500.637 1894.67 506.54 1884.34 507.941C1882.57 508.163 1880.87 507.941 1879.18 507.425C1871.73 504.917 1867.96 499.678 1867.96 491.784C1867.96 333.159 1867.96 174.976 1867.96 17.1622C1867.96 9.34156 1874.23 3.8819 1880.8 1.00451L1880.95 0.930725Z" fill="black"></path><path d="M2130.84 0.930725H2245.42C2281.86 4.39835 2312.19 11.9976 2336.46 23.7285C2450.89 79.2105 2511.24 200.356 2476.05 324.748C2449.2 419.406 2369.96 488.611 2273.01 504.917C2233.1 511.557 2179.39 508.015 2132.9 508.31C2124.12 508.31 2117.04 501.301 2116.97 492.522V343.635C2116.97 335.151 2120.95 329.322 2128.7 326.15C2130.25 325.485 2131.87 325.338 2133.42 325.633C2143.6 327.256 2148.62 333.232 2148.62 343.488V471.937C2148.62 474.52 2150.61 476.585 2153.19 476.585C2153.19 476.585 2153.34 476.585 2153.41 476.585C2201.08 474.962 2252.65 481.16 2297.87 466.625C2394.89 435.564 2458.57 346.513 2453.55 243.591C2447.94 129.38 2353.28 35.607 2237.45 33.8363C2201.74 33.3198 2166.62 33.1722 2132.02 33.5411C2123.83 33.6149 2117.12 27.0486 2116.97 18.8591C2116.82 10.0056 2121.39 4.10323 2130.84 1.07828V0.930725Z" fill="black"></path><path d="M2698.35 0.930725H2703.96C2712.96 4.25079 2717.38 9.12022 2717.38 15.3177C2717.38 174.164 2717.38 332.347 2717.38 489.792C2717.38 500.047 2712.37 506.097 2702.26 507.794C2699.75 508.237 2697.24 507.646 2694.81 506.245C2688.54 502.556 2685.44 497.096 2685.44 489.792C2685.44 331.462 2685.44 173.058 2685.44 14.5061C2685.44 8.8251 2689.79 4.32457 2698.42 0.930725H2698.35Z" fill="black"></path><path d="M0.389648 476.069V456.517C9.46449 432.982 23.0399 410.848 41.1158 390.19C47.6083 382.665 55.1338 381.484 63.6184 386.722C64.7989 387.46 65.758 388.419 66.6434 389.526C71.8079 396.756 71.439 403.692 65.6105 410.405C51.9613 426.047 41.042 442.868 32.9263 460.87C31.008 465.15 32.336 467.511 36.9104 468.027C42.2225 468.543 47.5346 468.101 52.8467 466.699C84.0553 458.214 115.707 445.524 147.948 428.777C207.488 397.789 268.798 359.719 331.806 314.566C417.39 253.33 502.088 185.305 571.736 108.353C590.033 88.1379 604.789 67.2584 616.077 45.641C618.364 41.2881 617.11 38.4845 612.314 37.2302C599.403 33.8364 563.178 47.8544 550.414 53.019C540.97 56.8555 533.887 54.2732 529.239 45.2721C528.501 43.8703 528.132 42.321 527.985 40.6978C527.542 33.0248 530.788 27.5651 537.871 24.3926C559.489 14.4324 599.698 -0.24963 624.267 7.20207C701.587 30.8114 571.736 156.162 548.127 178.37C461.362 259.97 365.671 333.896 261.052 400.003C217.522 427.522 173.623 451.796 129.503 472.97C100.582 486.841 72.9146 495.62 46.5017 499.236C24.4417 502.261 9.16938 494.588 0.463429 476.29L0.389648 476.069Z" fill="black"></path><path d="M224.088 270.004C237.698 270.004 248.73 258.971 248.73 245.361C248.73 231.752 237.698 220.719 224.088 220.719C210.479 220.719 199.446 231.752 199.446 245.361C199.446 258.971 210.479 270.004 224.088 270.004Z" fill="black"></path><path d="M243.64 495.399C234.639 492.817 229.917 486.472 229.622 476.364C229.622 475.257 229.843 474.225 230.434 473.265C235.893 463.969 243.788 461.092 253.969 464.633C321.108 487.947 399.167 476.954 455.165 433.941C518.542 385.321 547.832 319.952 542.962 237.91C542.446 229.425 546.282 223.818 554.472 221.162C555.948 220.719 557.423 220.572 558.973 220.719C569.006 221.973 574.245 227.581 574.835 237.615C579.04 315.599 555.948 380.156 505.63 431.211C434.359 503.515 347.005 524.837 243.64 495.325V495.399Z" fill="black"></path><path d="M799.364 254.912L798.949 492.407C798.934 501.086 805.957 508.134 814.637 508.149L815.153 508.15C823.832 508.165 830.88 501.142 830.895 492.463L831.31 254.968C831.325 246.288 824.302 239.24 815.622 239.225L815.106 239.224C806.427 239.209 799.379 246.233 799.364 254.912Z" fill="black"></path></svg>