<svg width="1161" height="873" viewBox="0 0 1161 873" fill="none" xmlns="http://www.w3.org/2000/svg">
<path d="M1118.65 668.414C1115.09 661.016 1112.76 654.515 1111.5 648.596C1105.7 647.139 1099.24 644.74 1091.8 641.266C1090.75 640.773 1090.73 639.248 1091.8 638.755C1099.2 635.191 1105.68 632.859 1111.55 631.604C1112.8 625.641 1115.13 619.184 1118.65 611.899C1119.17 610.845 1120.67 610.845 1121.16 611.899C1124.68 619.364 1127.1 625.82 1128.53 631.581C1134.36 632.792 1140.84 635.123 1148.35 638.733C1149.4 639.226 1149.4 640.75 1148.35 641.243C1140.68 644.83 1134.38 647.184 1128.58 648.619C1127.14 654.38 1124.79 660.679 1121.16 668.391C1120.67 669.445 1119.14 669.467 1118.65 668.391V668.414ZM1095.72 639.988C1124.21 652.744 1107.24 636.513 1119.91 664.513C1122.91 657.855 1124.88 652.295 1126.09 647.184C1126.2 646.668 1126.61 646.265 1127.12 646.153C1132.25 644.942 1137.81 642.969 1144.45 640.01C1137.92 637.051 1132.25 635.146 1127.14 634.182C1126.61 634.07 1126.18 633.666 1126.05 633.128C1124.84 628.039 1122.82 622.345 1119.91 615.822C1113.09 630.842 1115.15 633.756 1113 634.182C1107.85 635.191 1102.16 637.096 1095.72 640.01V639.988Z" fill="black"/>
<path d="M1160.74 683.188C1156.43 685.206 1152.24 686.864 1148.23 687.806C1147.29 691.819 1145.61 696.033 1143.59 700.315C1141.55 696.078 1139.94 691.864 1139.16 687.784C1135.14 686.842 1130.95 685.206 1126.67 683.188C1130.91 681.148 1135.1 679.534 1139.18 678.749C1139.98 674.669 1141.58 670.477 1143.59 666.263C1145.61 670.544 1147.27 674.759 1148.21 678.749C1152.29 679.534 1156.5 681.17 1160.74 683.188Z" fill="black"/>
<path d="M70.8327 221.767C58.1927 205.94 34.9727 202.219 18.0327 213.315C-0.997341 225.78 -5.67746 251.381 7.41254 269.718C20.1125 287.54 44.9227 291.687 62.8327 278.909C81.2927 265.728 85.1027 239.678 70.8327 221.767ZM23.8327 274.56C23.0727 274.56 22.4726 273.955 22.4726 273.193C22.3526 256.581 17.2227 239.813 8.03266 225.981C7.61266 225.354 7.79254 224.502 8.41254 224.076C9.04254 223.65 9.8927 223.829 10.3227 224.457C19.8027 238.737 25.0926 256.043 25.2026 273.171C25.2026 273.933 24.5927 274.56 23.8327 274.56ZM48.6428 266.087C48.6428 266.087 48.5126 266.087 48.4626 266.087C47.7926 266.087 47.1827 265.593 47.0927 264.898C44.6527 247.076 36.2027 230.353 23.2927 217.844C22.7627 217.306 22.7326 216.431 23.2726 215.893C23.8126 215.355 24.6826 215.333 25.2226 215.871C38.5826 228.828 47.3227 246.112 49.8527 264.54C49.9627 265.302 49.4326 265.997 48.6926 266.087H48.6428ZM66.4826 247.883C66.4826 247.883 66.2826 247.906 66.1926 247.906C65.5626 247.906 64.9827 247.457 64.8427 246.83C61.7727 232.819 52.5927 220.063 40.2827 212.71C39.6327 212.329 39.4127 211.477 39.8127 210.827C40.1927 210.177 41.0426 209.953 41.6926 210.356C54.6526 218.09 64.3127 231.518 67.5327 246.269C67.6927 247.009 67.2226 247.749 66.4826 247.906V247.883Z" fill="#D9FE7C"/>
<path d="M79.9025 275.726C75.0925 275.726 70.2727 273.798 66.8627 270.212C62.9827 266.154 61.2426 260.662 62.0226 255.147C62.8326 249.655 66.0525 244.88 70.9225 242.1C78.1825 237.93 87.7926 239.544 93.3126 245.844C97.1226 250.193 98.5927 255.932 97.3827 261.536C96.1727 267.163 92.4327 271.781 87.1227 274.179C84.8327 275.211 82.3725 275.726 79.9025 275.726ZM79.7225 242.571C77.1725 242.571 74.5926 243.198 72.3126 244.521C68.2126 246.875 65.4526 250.91 64.7826 255.55C64.1026 260.213 65.5827 264.854 68.8827 268.284C73.2527 272.857 80.2626 274.247 86.0026 271.646C90.5026 269.606 93.6625 265.706 94.7025 260.953C95.7325 256.201 94.4726 251.358 91.2426 247.682C88.3326 244.342 84.0526 242.571 79.7726 242.571H79.7225Z" fill="black"/>
<path d="M1094.98 341.657C1094.98 341.657 1092.99 363.719 1075.15 368.086C1092.99 372.424 1094.98 394.514 1094.98 394.514C1094.98 394.514 1096.96 372.453 1114.8 368.086C1096.96 363.719 1094.98 341.657 1094.98 341.657Z" fill="#641ED6"/>
<path d="M215.803 0C215.803 0 214.383 14.9703 201.643 17.9336C214.383 20.8776 215.803 35.8672 215.803 35.8672C215.803 35.8672 217.223 20.8968 229.963 17.9336C217.223 14.9703 215.803 0 215.803 0Z" fill="#641ED6"/>
<path d="M83.6526 630.481C83.6526 630.481 81.3627 654.371 60.7527 659.1C81.3627 663.798 83.6526 687.718 83.6526 687.718C83.6526 687.718 85.9427 663.828 106.543 659.1C85.9427 654.371 83.6526 630.481 83.6526 630.481Z" fill="#641ED6"/>
<path d="M14.1526 410.341C14.1526 410.341 12.7427 425.311 0.00268555 428.274C12.7427 431.218 14.1526 446.208 14.1526 446.208C14.1526 446.208 15.5727 431.238 28.3127 428.274C15.5727 425.311 14.1526 410.341 14.1526 410.341Z" fill="#641ED6"/>
<mask id="mask0_1_51" style="mask-type:luminance" maskUnits="userSpaceOnUse" x="292" y="79" width="576" height="794">
<path d="M867.273 79.748H292.273V872.748H867.273V79.748Z" fill="white"/>
</mask>
<g mask="url(#mask0_1_51)">
<path d="M867.273 110.404L842.453 507.132L816.003 514.33L845.733 98.599L867.273 110.404Z" fill="#D9FE7C"/>
<path d="M582.173 79.748L567.553 284.205V284.281V284.662V284.814V284.967V285.043C567.553 285.043 567.553 285.233 567.553 285.348V285.462V285.728C567.553 285.805 567.553 285.881 567.553 285.957C567.553 286.033 567.553 286.109 567.553 286.185C567.553 286.262 567.553 286.338 567.553 286.452C567.553 286.528 567.553 286.604 567.553 286.719C567.553 286.757 567.553 286.795 567.553 286.871V287.023C567.553 287.023 567.553 287.099 567.553 287.176C567.553 287.442 567.513 287.747 567.483 288.051C567.483 288.204 567.483 288.356 567.483 288.508C567.483 288.775 567.483 289.041 567.443 289.308C567.443 289.46 567.443 289.575 567.443 289.727C567.443 289.727 567.443 289.803 567.443 289.841C567.443 289.955 567.443 290.07 567.443 290.184C567.403 290.869 567.323 291.669 567.283 292.507C567.283 292.659 567.283 292.812 567.283 293.002C567.213 294.03 567.133 295.173 567.023 296.467C567.023 296.582 567.023 296.734 567.023 296.848C567.023 297.229 566.983 297.648 566.943 298.067C566.943 298.448 566.903 298.866 566.873 299.285C566.873 299.438 566.873 299.59 566.873 299.742C566.873 300.199 566.793 300.656 566.753 301.113C566.753 301.532 566.683 301.989 566.683 302.446C566.683 302.636 566.683 302.865 566.643 303.055C566.643 303.208 566.643 303.398 566.643 303.55C566.643 304.007 566.563 304.464 566.523 304.921C566.523 305.264 566.493 305.645 566.453 305.988C566.453 306.254 566.453 306.521 566.413 306.787C566.413 306.978 566.413 307.168 566.373 307.358C566.373 307.663 566.373 307.93 566.303 308.234C566.303 308.615 566.263 308.996 566.223 309.415C566.143 310.557 566.073 311.738 565.953 312.956C565.953 313.033 565.953 313.109 565.953 313.147C565.953 313.566 565.883 314.023 565.883 314.48C565.843 315.089 565.803 315.698 565.763 316.308C565.763 316.612 565.723 316.955 565.693 317.26C565.653 317.945 565.573 318.63 565.533 319.354C565.533 319.811 565.463 320.306 565.423 320.801C565.343 321.867 565.273 322.972 565.193 324.114C565.193 324.571 565.123 325.066 565.083 325.561C565.083 325.714 565.083 325.828 565.083 325.98C565.043 326.628 565.003 327.313 564.923 327.998C564.893 328.76 564.813 329.56 564.773 330.359C564.773 330.931 564.703 331.464 564.663 332.035C564.663 332.34 564.623 332.644 564.583 332.987C564.583 333.52 564.513 334.053 564.473 334.586C564.433 335.348 564.353 336.072 564.323 336.871C564.323 337.214 564.283 337.519 564.243 337.861C564.243 338.204 564.203 338.547 564.163 338.89C564.163 339.232 564.133 339.575 564.093 339.918C564.093 340.261 564.053 340.603 564.013 340.946C564.013 341.289 563.973 341.631 563.943 342.012C563.713 344.945 563.523 348.029 563.293 351.228C563.253 351.875 563.213 352.561 563.143 353.208C563.143 353.322 563.143 353.398 563.143 353.513C563.103 354.198 563.023 354.922 562.983 355.607C562.983 355.683 562.983 355.76 562.983 355.874C562.953 356.597 562.873 357.321 562.833 358.082C562.683 360.177 562.533 362.309 562.373 364.556C562.303 365.432 562.263 366.27 562.183 367.146C562.183 367.679 562.113 368.25 562.073 368.821C562.563 368.669 563.063 368.517 563.553 368.364C574.143 365.127 578.293 374.457 573.913 379.712L573.683 379.903C582.623 383.825 581.293 388.776 574.023 393.536C579.163 396.354 577.833 404.998 564.283 408.426C563.823 408.54 563.363 408.654 562.873 408.768C567.063 408.464 570.823 409.301 569.873 413.643C569.073 417.07 563.713 420.497 559.793 421.449C560.813 423.734 561.883 426.133 563.023 428.57C561.233 429.408 559.443 430.246 557.653 431.084L557.543 432.874V433.293L557.313 436.453C565.723 454.199 575.473 475.258 585.783 497.954L587.543 498.068L816.613 514.443L817.483 502.219L838.003 215.05L846.303 98.712L582.173 79.748ZM710.183 487.596L661.003 484.055L662.643 461.13L711.823 464.671L710.183 487.596ZM791.833 450.048L585.523 435.311L607.333 130.205L813.603 144.981L791.833 450.048Z" fill="#641ED6"/>
<path d="M662.653 461.173L661.013 484.077L710.183 487.594L711.813 464.69L662.653 461.173Z" fill="white"/>
<path d="M607.333 130.167L585.523 435.272L791.833 450.01L813.603 144.942L607.333 130.167ZM642.843 151.112C650.113 150.655 656.323 156.176 656.773 163.412C657.233 170.647 651.713 176.93 644.483 177.349C637.213 177.806 631.003 172.285 630.553 165.049C630.093 157.776 635.613 151.569 642.843 151.112ZM728.303 403.36C727.653 412.271 719.923 419.012 710.983 418.364L670.063 415.432C661.153 414.785 654.413 407.054 655.063 398.105C655.673 389.575 662.793 383.063 671.203 383.063C671.583 383.063 672.003 383.063 672.383 383.101L713.303 386.034C722.213 386.681 728.943 394.411 728.303 403.36ZM758.413 350.656L626.553 341.212L634.543 229.14L679.503 232.338L677.943 254.464L719.893 257.472L721.453 235.347L766.403 238.546L758.413 350.618V350.656ZM771.883 175.902C770.213 175.902 786.803 176.969 677.793 169.162C675.733 169.01 676.003 165.887 678.013 166.077L772.003 172.78C773.973 172.932 773.863 175.864 771.883 175.864V175.902Z" fill="white"/>
<path d="M766.403 238.584L758.413 350.656L626.513 341.212L634.543 229.14L679.503 232.338L677.943 254.502L719.853 257.472L721.453 235.347L766.403 238.584Z" fill="#D9FE7C"/>
<path d="M728.303 403.361C727.653 412.272 719.923 419.012 710.983 418.365L670.063 415.432C661.153 414.785 654.413 407.054 655.063 398.105C655.673 389.575 662.793 383.063 671.203 383.063C671.583 383.063 672.003 383.063 672.383 383.102L713.303 386.034C722.213 386.681 728.943 394.412 728.303 403.361Z" fill="#641ED6"/>
<path d="M644.483 177.388C637.213 177.845 631.003 172.323 630.553 165.088C630.093 157.815 635.613 151.607 642.843 151.15C650.113 150.693 656.323 156.215 656.773 163.451C657.233 170.686 651.713 176.969 644.483 177.388Z" fill="#D9FE7C"/>
<path d="M326.873 313.451C327.483 313.451 328.053 313.109 328.323 312.499C340.003 284.358 361.053 260.671 387.663 245.858C388.423 245.439 388.693 244.487 388.273 243.763C387.853 243.001 386.903 242.735 386.173 243.154C358.963 258.348 337.413 282.53 325.463 311.319C325.043 312.347 325.803 313.451 326.913 313.451H326.873Z" fill="black"/>
<path d="M329.503 271.792L345.943 253.398C346.513 252.751 346.443 251.799 345.833 251.228C345.183 250.657 344.233 250.695 343.663 251.342L327.253 269.735C326.683 270.383 326.723 271.335 327.373 271.906C328.013 272.477 328.963 272.439 329.543 271.792H329.503Z" fill="black"/>
<path d="M695.103 117.258C695.523 117.258 693.583 117.182 699.253 117.486C701.233 117.486 701.313 114.516 699.333 114.402L695.263 114.173C694.423 114.135 693.663 114.783 693.623 115.621C693.583 116.458 694.233 117.22 695.073 117.258H695.103Z" fill="black"/>
<path d="M709.803 118.591C746.833 120.457 734.083 119.81 736.823 119.962C738.803 119.962 738.883 116.992 736.903 116.878L709.953 115.507C709.073 115.431 708.393 116.116 708.313 116.954C708.283 117.792 708.923 118.515 709.803 118.591Z" fill="black"/>
<path d="M677.793 169.163C675.733 169.011 676.003 165.888 678.013 166.079L771.993 172.781C773.973 172.933 773.863 175.865 771.883 175.865C770.213 175.865 786.803 176.932 677.793 169.125V169.163Z" fill="black"/>
<path d="M480.573 188.546C478.863 190.184 476.733 191.136 474.793 191.936C474.033 192.278 473.113 191.936 472.773 191.136C472.433 190.336 472.773 189.46 473.573 189.118C475.323 188.356 477.113 187.594 478.403 186.338C479.393 185.348 480.233 183.748 479.773 182.339C479.553 181.692 479.323 181.235 477.343 179.331C472.893 174.951 469.693 169.163 468.393 163.032C468.203 162.194 468.743 161.395 469.573 161.204C470.413 161.052 471.213 161.547 471.403 162.385C472.543 167.906 475.443 173.162 479.473 177.122C480.803 178.417 482.133 179.635 482.713 181.425C483.473 183.748 482.633 186.566 480.543 188.584L480.573 188.546Z" fill="black"/>
<path d="M465.653 210.937C459.603 210.442 454.273 205.796 452.943 199.894C452.753 199.056 453.283 198.218 454.123 198.028C454.963 197.837 455.793 198.371 455.983 199.208C457.013 203.778 461.283 207.472 465.963 207.853C467.973 208.005 467.753 211.09 465.733 210.937H465.653Z" fill="black"/>
<path d="M460.103 172.323C460.103 175.979 459.603 179.064 456.103 178.911C452.713 178.797 452.103 175.979 452.103 172.323C452.103 168.668 452.443 165.583 456.103 165.697C459.793 165.812 460.103 168.668 460.103 172.323Z" fill="black"/>
<path d="M404.983 183.596C404.753 186.223 399.883 184.929 398.663 181.349C397.483 177.807 400.563 173.771 402.353 175.751C402.923 176.398 402.893 177.35 402.243 177.922C400.753 179.254 401.593 181.768 403.573 181.92C404.413 181.996 405.053 182.758 404.983 183.596Z" fill="black"/>
<path d="M498.693 154.12C498.393 154.92 497.513 155.339 496.713 155.073C492.683 153.625 488.113 154.082 484.423 156.253C482.673 157.281 481.113 154.616 482.863 153.587C487.313 150.96 492.873 150.427 497.743 152.178C498.543 152.483 498.963 153.359 498.693 154.159V154.12Z" fill="black"/>
<path d="M461.963 156.519C461.663 157.319 460.743 157.7 459.943 157.395C455.533 155.644 450.053 156.71 446.623 159.947C446.013 160.518 445.023 160.518 444.453 159.871C443.883 159.261 443.883 158.271 444.533 157.7C448.873 153.587 455.573 152.331 461.123 154.539C461.923 154.844 462.303 155.758 462.003 156.558L461.963 156.519Z" fill="black"/>
<path d="M495.153 169.277C495.153 172.932 494.663 176.017 491.163 175.865C487.773 175.75 487.163 172.932 487.163 169.277C487.163 165.621 487.503 162.536 491.163 162.65C494.853 162.765 495.153 165.621 495.153 169.277Z" fill="black"/>
<path d="M744.093 812.733C743.333 812.314 742.423 812.581 742.003 813.342C741.583 814.104 741.853 815.018 742.613 815.437L791.943 842.817L665.153 862.124L612.583 850.928C610.983 850.585 610.033 852.642 611.293 853.632L630.973 869.664H597.813C596.973 869.664 596.253 870.35 596.253 871.225C596.253 872.101 596.943 872.787 597.813 872.787H635.313C636.753 872.787 637.403 870.959 636.303 870.045L618.213 855.308L664.813 865.247C664.813 865.247 665.193 865.285 665.383 865.247L796.933 845.216C798.373 844.988 798.723 843.045 797.463 842.322L744.173 812.733H744.093Z" fill="black"/>
<path d="M555.713 869.663H362.883C358.353 867.836 312.983 849.519 298.663 843.844C311.383 841.598 348.303 837.295 353.333 836.381C354.163 836.228 354.733 835.429 354.583 834.591C354.433 833.753 353.633 833.182 352.793 833.334C350.663 833.715 343.243 834.667 334.643 835.771C292.543 841.141 292.503 841.522 292.273 843.349C292.193 844.073 292.763 844.873 293.413 845.101C296.723 846.282 361.323 872.367 361.973 872.634C362.163 872.71 362.353 872.748 362.543 872.748H555.683C556.513 872.748 557.243 872.063 557.243 871.187C557.243 870.311 556.553 869.625 555.683 869.625L555.713 869.663Z" fill="black"/>
<path d="M592.943 782.077C579.693 780.516 556.663 778.879 556.133 778.955C513.353 785.238 532.763 784.438 474.333 778.422C472.283 778.231 471.973 781.278 473.993 781.506C533.903 787.18 510.423 788.818 556.403 782.077C568.853 782.953 580.953 783.829 592.603 785.2C593.443 785.314 594.203 784.705 594.313 783.829C594.423 782.991 593.823 782.23 592.943 782.115V782.077Z" fill="black"/>
<path d="M459.333 722.632C434.753 730.096 407.723 728.192 385.223 718.634C384.423 718.291 384.083 717.377 384.393 716.616C384.733 715.816 385.643 715.473 386.403 715.816C408.823 725.374 435.093 726.783 458.423 719.7C459.263 719.472 460.103 719.929 460.363 720.728C460.633 721.528 460.133 722.404 459.333 722.67V722.632Z" fill="black"/>
<path d="M742.193 784.134C741.923 783.677 741.473 783.41 740.973 783.372C734.963 770.387 717.073 766.578 702.453 769.663C709.273 763.837 711.173 762.047 712.203 759.229C713.303 756.22 712.313 752.108 709.113 750.775C705.463 749.29 701.803 752.374 700.623 753.364C696.063 757.249 691.983 761.59 688.443 766.35C689.133 760.828 688.673 755.192 687.003 749.823C686.053 746.776 684.333 745.063 682.163 745.025C678.933 744.91 677.443 748.185 677.253 751.422C676.953 756.259 677.563 769.054 683.193 774.537C683.193 774.537 683.193 774.614 683.193 774.652C678.593 773.547 674.023 770.729 669.223 770.501C670.523 764.751 666.982 758.086 664.652 753.783C663.782 752.146 662.753 750.47 661.113 749.29C659.293 747.995 657.003 747.766 655.213 748.604C653.843 745.177 651.983 742.397 650.683 739.807C658.563 733.258 665.033 724.994 669.373 715.588C671.203 711.589 671.473 707.02 670.103 702.717C651.983 645.252 614.983 559.798 586.963 497.917C586.853 497.65 586.743 497.422 586.623 497.155C573.793 468.937 561.233 442.09 556.933 433.141C556.893 433.026 556.823 432.912 556.783 432.798C556.863 432.798 556.893 432.722 556.973 432.722C558.533 431.96 560.053 431.275 563.143 429.828C563.943 429.447 564.242 428.533 563.902 427.771C563.022 425.867 562.183 424.039 561.393 422.25C571.783 418.327 572.993 410.825 568.963 408.198C577.913 404.313 579.393 397.763 576.533 394.031C576.463 393.917 576.343 393.841 576.273 393.727C583.923 387.52 581.253 380.893 575.743 378.837C579.093 372.021 573.413 363.529 562.643 366.765C562.343 366.842 562.033 366.956 561.733 367.07C555.643 369.088 548.603 372.973 542.543 375.676C543.083 373.277 543.463 370.535 543.003 367.946C547.033 361.739 554.273 354.808 563.023 348.677L563.293 345.173C562.983 345.173 562.643 345.25 562.343 345.44C553.513 351.457 546.313 358.083 541.713 364.366C541.363 363.757 540.983 363.224 540.563 362.729C536.493 345.592 533.603 327.39 528.693 301.799C528.543 300.961 527.703 300.428 526.863 300.581C526.023 300.733 525.493 301.571 525.643 302.408C530.323 326.704 533.073 343.879 536.833 360.292C531.623 358.768 529.033 362.005 527.473 366.537C525.113 373.506 521.423 380.398 517.953 386.91C517.803 386.948 517.653 387.025 517.503 387.139C513.923 389.804 511.223 390.033 506.123 391.061C503.263 389.614 495.503 392.204 494.163 393.27C463.673 398.335 436.843 398.563 418.953 393.765C415.223 392.737 413.053 386.225 412.133 378.304C415.143 377.542 419.023 375.905 419.253 372.82C420.743 354.579 424.053 340.908 426.523 322.515C426.643 321.677 426.033 320.878 425.193 320.763C424.353 320.649 423.553 321.259 423.443 322.096C421.193 338.738 418.233 351.647 416.553 368.212C404.673 355.95 360.333 346.697 345.523 353.17C358.693 313.566 374.683 282.987 407.873 262.956C416.783 259.11 425.843 256.445 436.423 254.541C442.363 266.993 455.993 275.714 469.843 275.714C483.703 275.714 497.673 266.841 503.533 254.122C503.723 253.741 503.723 253.284 503.533 252.903C525.153 255.34 548.063 266.879 566.303 287.366C566.563 287.671 566.903 287.861 567.323 287.9L567.402 287.024V286.871C567.402 286.871 567.402 286.795 567.402 286.719C567.402 286.643 567.402 286.529 567.402 286.452C567.402 286.376 567.402 286.3 567.402 286.186C567.402 286.11 567.402 286.034 567.402 285.957C567.402 285.881 567.402 285.805 567.402 285.729V285.462V285.348V285.043V284.967V284.815V284.663V284.32V284.282V284.206C546.242 260.71 518.523 249.285 495.383 249.285C495.383 249.285 491.233 249.133 485.523 248.981C485.183 247 484.613 245.096 484.423 243.84C484.423 243.687 484.423 243.687 483.123 234.7C496.453 225.523 504.333 204.388 505.203 185.614C505.703 175.218 505.473 169.924 505.093 164.745C510.493 155.796 511.903 145.667 509.203 136.108C510.683 130.32 506.993 123.351 503.343 117.906C485.903 91.744 430.672 84.661 408.402 107.967C401.712 114.973 398.203 125.446 400.643 134.661C394.783 124.075 392.763 111.356 395.423 99.589C395.613 98.751 395.083 97.913 394.243 97.723C393.413 97.532 392.573 98.065 392.383 98.903C389.793 110.213 391.313 122.399 396.223 132.948C388.993 126.817 379.973 124.341 371.443 125.179C370.613 125.255 369.963 126.017 370.043 126.855C370.113 127.692 370.873 128.34 371.713 128.226C379.213 127.502 387.053 129.597 393.483 134.699C379.513 133.405 372.703 148.409 379.103 158.195C381.073 161.242 384.013 163.374 387.243 165.164C377.693 177.921 391.503 204.54 409.393 198.79C410.163 198.523 413.963 196.238 414.083 196.276C415.143 197 417.463 203.207 418.303 204.616C424.623 215.165 435.473 226.437 447.273 233.215C447.123 234.434 447.233 233.939 447.763 249.628C433.183 251.266 419.673 254.312 406.233 260.138C371.103 281.312 354.853 313.604 341.263 355.531C341.113 355.988 341.223 356.483 341.493 356.864C341.603 357.169 339.663 360.977 350.583 367.07C353.593 387.481 358.733 420.193 375.783 432.151C380.853 435.692 388.233 438.205 397.753 439.729C396.223 446.126 394.823 452.067 394.093 455.837C393.943 456.675 394.473 457.474 395.313 457.627C395.423 457.627 401.673 458.922 408.293 460.216C407.073 460.978 409.473 449.972 370.073 716.045C368.823 722.823 371.633 729.906 377.233 734.057C381.043 736.875 385.073 739.731 389.373 742.359C387.663 746.738 387.093 751.46 388.003 756.487C385.763 757.172 383.973 758.315 382.753 759.876C380.013 763.38 379.933 769.739 380.923 774.195C373.423 781.963 364.633 789.808 367.143 800.242C365.583 806.335 362.843 817.341 368.323 822.329C373.773 827.242 381.573 825.147 387.093 826.137C408.983 830.06 426.873 844.15 449.743 844.15C472.623 844.15 489.063 825.947 489.823 811.095C490.053 806.259 487.773 803.06 485.073 799.29C484.803 798.947 484.463 798.719 484.083 798.681C482.673 791.598 478.023 787.18 471.713 785.847C464.663 784.362 461.162 788.475 453.402 790.836C455.412 788.132 456.713 784.857 457.623 782.42C460.483 775.032 455.833 769.13 450.123 770.996C445.333 772.557 443.803 778.307 443.273 783.372C442.473 781.925 441.523 780.516 440.453 779.069C438.743 776.746 435.663 775.071 433.073 776.365C430.063 777.85 430.333 780.707 430.483 781.887C430.673 783.791 431.743 785.352 432.843 786.761C434.973 789.427 437.223 792.512 440.233 794.301C433.913 795.292 428.273 794.873 423.823 789.579C421.613 786.952 422.263 785.124 422.073 784.438C424.893 779.907 428.773 773.319 426.713 767.987C425.613 765.055 422.983 762.58 419.143 760.6C420.473 757.744 421.313 754.735 421.693 751.613C433.303 751.46 444.913 748.376 455.113 742.549C458.923 740.379 461.773 736.799 463.143 732.458C470.983 708.276 486.133 544.68 488.683 517.719C518.223 581.162 513.583 574.003 586.393 743.197C589.293 749.48 595.683 753.593 602.693 753.707C608.473 753.821 614.373 753.821 620.123 753.174C619.623 753.669 619.513 754.469 619.933 755.078L625.373 763.189L626.513 764.789C625.223 765.893 624.153 768.939 624.883 771.796C627.773 783.677 628.043 785.847 629.063 787.675C628.953 787.866 628.843 788.094 628.803 788.323C626.893 800.128 625.833 810.562 633.143 819.625C633.143 819.702 633.143 819.778 633.173 819.816C636.793 828.194 645.433 833.868 653.733 833.868C664.583 833.868 671.583 825.338 680.453 824.309C691.643 822.977 703.443 825.642 715.053 824.309C726.973 822.938 740.633 815.817 744.323 802.984C746.153 796.701 745.353 789.808 742.193 784.096V784.134ZM421.163 203.055C420.053 201.227 418.003 194.372 415.413 193.42C412.783 192.468 410.353 195.286 408.633 195.858C395.273 200.123 384.503 181.996 388.083 170.534C389.183 166.954 392.343 163.527 396.223 162.956C405.053 161.661 415.523 176.893 418.423 182.263C420.893 186.985 422.723 185.576 424.093 181.577C426.873 172.095 425.763 161.737 423.253 152.217C422.643 149.932 425.423 148.218 427.133 149.856C439.053 152.217 453.133 147.952 461.893 136.489C466.723 137.594 471.523 139.079 476.203 141.021C484.003 143.077 491.883 144.715 498.083 144.144C500.413 150.503 501.853 158.043 502.353 166.954C503.573 188.089 501.282 209.453 488.152 225.827C482.102 233.367 474.673 236.833 466.003 236.262C449.103 235.081 430.253 218.249 421.123 202.979L421.163 203.055ZM482.483 253.627C481.413 255.873 477.723 257.206 475.783 257.892C466.383 261.167 457.583 256.368 451.843 251.723C450.543 250.732 451.343 250.123 450.543 234.853C460.253 239.689 470.753 241.517 480.423 236.414C480.803 239.232 481.453 243.764 481.493 244.03C481.943 247.115 483.623 251.38 482.483 253.627ZM448.683 252.675C449.023 253.246 449.403 253.779 449.933 254.198C457.853 260.595 467.293 264.175 476.843 260.862C481.073 259.339 485.483 257.32 485.943 252.827C485.943 252.598 485.943 252.332 485.943 252.103C490.853 252.218 496.683 252.37 500.823 252.713C500.823 252.751 500.753 252.789 500.753 252.827C495.533 264.213 483.093 272.629 469.693 272.629C457.363 272.553 445.213 264.975 439.583 253.969C442.473 253.512 445.753 253.055 448.713 252.713L448.683 252.675ZM702.603 755.725C704.893 753.783 706.643 753.098 707.933 753.631C709.423 754.24 709.873 756.525 709.273 758.163C708.353 760.676 705.763 762.58 703.333 764.751C699.523 768.178 691.833 775.071 687.263 773.623C691.413 766.883 696.553 760.866 702.603 755.763V755.725ZM682.093 748.147C682.923 748.147 683.653 749.518 684.033 750.775C686.123 757.401 686.203 764.522 684.293 771.186C679.773 764.903 678.973 747.652 682.093 748.147ZM519.253 389.576C520.963 388.281 520.313 388.586 520.733 388.015C524.233 381.389 527.853 374.572 530.293 367.489C532.113 362.119 535.313 362.158 537.633 364.176C541.253 367.299 540.033 373.011 538.813 377.428L535.813 380.817C534.933 381.807 535.653 383.407 536.953 383.407C538.133 383.407 538.393 382.341 540.943 379.713C547.643 377.047 556.633 371.83 563.443 369.774C572.083 367.184 575.353 373.887 572.423 378.19C563.973 377.162 554.083 381.389 545.283 383.94C544.453 384.168 543.993 385.044 544.223 385.844C544.453 386.682 545.323 387.139 546.123 386.91C551.453 385.349 556.782 383.369 562.152 382.112C578.402 378.228 581.563 386.301 573.493 391.823C569.993 390.338 565.573 391.594 561.613 392.508C557.623 393.384 552.823 394.983 548.603 396.392L546.583 397.078C545.783 397.344 545.323 398.22 545.593 399.02C545.853 399.82 546.733 400.277 547.533 400.01C550.883 398.944 555.523 397.116 563.973 395.136C567.673 394.26 571.853 393.194 573.983 395.974C575.893 398.449 573.833 403.818 564.623 406.446C564.283 406.56 562.373 407.093 562.113 407.131C561.503 407.246 559.903 407.131 553.623 408.693L552.863 408.883C550.923 409.34 551.533 412.272 553.513 411.891C556.363 411.32 559.443 410.863 562.413 410.178C565.003 409.987 566.873 410.33 567.553 411.13C567.703 411.282 568.123 411.777 567.783 413.186C567.093 416.195 561.313 419.66 557.353 420.231C556.363 420.46 537.753 423.925 527.323 425.334C522.943 426.21 518.033 427.162 512.823 428.152C513.043 425.41 513.043 422.783 513.013 420.155C520.013 414.671 519.593 403.742 509.963 400.315C509.353 398.144 508.672 395.974 507.902 393.803C512.432 392.889 515.293 392.546 519.253 389.576ZM514.493 412.234C514.223 412.996 514.072 415.052 511.902 417.109C505.962 422.935 492.373 419.431 493.863 409.797C495.653 398.677 516.853 400.505 514.493 412.196V412.234ZM377.723 429.637C360.413 417.527 356.183 381.579 353.143 362.272C364.713 359.873 380.353 358.768 396.343 363.833C400.493 365.394 404.523 367.146 408.483 369.203C408.483 376.362 409.323 394.336 418.033 396.697C435.963 401.495 462.493 401.381 492.603 396.583C492.793 397.763 492.683 396.621 494.093 403.057C489.063 407.855 489.183 416.88 496.603 421.069C497.093 429.333 496.453 429.485 497.253 430.894C469.613 435.464 400.603 445.669 377.693 429.637H377.723ZM397.593 454.923C398.363 451.153 399.613 445.822 400.983 440.186C436.313 444.755 492.793 435.502 527.853 428.381C539.843 426.743 558.043 423.24 558.343 423.163C559.033 424.649 559.672 426.134 560.402 427.695C517.232 447.155 484.083 469.737 422.453 459.721C416.973 458.845 402.353 455.875 397.593 454.923ZM484.573 803.822C485.983 805.992 487.013 808.163 486.863 810.943C486.213 824.385 469.463 841.636 448.833 841.065C426.603 840.456 409.663 827.051 387.743 823.091C381.873 822.024 374.873 824.005 370.533 820.006C367.333 817.112 368.093 810.562 369.243 805.193C372.623 811.286 375.823 812.542 382.863 814.066C399.003 817.607 395.843 813.418 419.143 825.604C433.453 833.106 446.283 839.504 462.043 834.287C474.373 830.212 484.233 815.398 484.613 803.746L484.573 803.822ZM451.193 773.928C452.833 773.395 454.163 773.966 454.923 775.528C455.723 777.203 455.683 779.031 454.843 781.278C453.433 784.895 451.153 790.836 446.933 792.245C445.593 787.104 446.163 775.528 451.193 773.89V773.928ZM436.152 785.847C435.162 784.553 433.793 783.106 433.643 781.582C433.493 779.945 433.763 779.526 434.553 779.107C435.663 778.574 437.303 779.831 438.093 780.859C440.873 784.629 442.703 788.323 443.803 792.397C440.803 791.674 438.362 788.589 436.152 785.809V785.847ZM434.363 797.805C429.763 802.489 427.283 807.249 426.713 812.657C426.643 813.494 427.253 814.256 428.083 814.37C428.923 814.446 429.683 813.837 429.803 812.999C430.793 803.708 438.213 798.871 439.013 797.615C442.173 797.272 445.173 796.586 448.113 795.749C444.033 800.547 441.863 805.726 441.753 811.248C441.753 812.085 442.403 812.809 443.273 812.809C444.113 812.809 444.793 812.123 444.833 811.286C444.953 805.954 447.153 801.118 451.613 796.434C452.103 795.939 452.143 795.177 451.803 794.606C452.103 794.53 454.693 793.692 455.413 793.502C461.623 791.636 465.423 787.637 471.213 788.894C476.273 789.96 479.893 793.502 481.073 798.643C483.963 810.981 473.083 827.508 461.093 831.469C446.323 836.343 433.983 829.983 420.623 822.977C397.063 810.638 399.693 814.713 383.593 811.133C379.443 810.219 375.823 809.42 373.503 806.107C365.243 794.53 372.663 787.371 382.373 777.355C385.303 778.65 396.643 789.084 419.213 785.886C419.333 787.828 420.133 789.808 421.613 791.56C424.893 795.444 429.262 797.538 434.402 797.805H434.363ZM419.603 782.725C406.503 784.781 395.013 782.268 384.503 775.071C383.093 771.034 383.133 764.56 385.343 761.742C386.103 760.79 387.202 760.029 388.652 759.533C391.882 767.873 402.013 769.32 410.883 768.368C413.813 768.064 416.283 766.426 417.843 763.265C427.253 767.987 425.153 773.814 419.633 782.725H419.603ZM392.233 743.92C402.813 749.861 410.233 751.308 418.683 751.575C418.303 754.507 417.433 757.363 416.063 760.029C415.643 760.371 415.753 760.295 414.763 762.428C413.923 763.989 412.333 765.093 410.503 765.284C406.883 765.665 394.823 766.388 391.733 759.038C391.583 758.734 391.503 758.391 391.393 758.048C391.693 757.096 389.373 751.651 392.233 743.92ZM602.803 750.661C597.013 750.584 591.683 747.157 589.293 741.978L584.643 731.125C606.193 726.403 626.973 717.035 644.783 703.935C645.473 703.44 645.623 702.45 645.133 701.764C644.633 701.079 643.643 700.927 642.963 701.422C625.333 714.407 604.743 723.623 583.423 728.231C547.033 644.529 518.943 574.383 485.603 503.743C488.153 501.344 490.053 498.297 490.973 494.946C491.193 494.108 490.703 493.271 489.863 493.042C489.023 492.814 488.193 493.309 487.963 494.147C486.633 499.211 482.523 503.476 477.533 505.076C475.853 505.609 476.243 508.084 477.993 508.084C479.013 508.084 481.833 506.599 483.093 505.723C483.733 507.132 484.803 509.341 486.133 512.235C485.073 522.212 468.553 705.953 460.253 731.544C459.113 735.124 456.753 738.094 453.633 739.884C441.333 746.891 426.872 749.785 412.902 748.033C400.222 746.434 388.843 738.703 379.173 731.544C374.533 728.079 372.173 722.214 373.233 716.502C412.253 450.391 411.183 461.549 410.503 460.597C423.973 463.225 435.893 465.243 451.533 465.243C491.353 465.243 518.793 450.772 553.923 434.093C558.233 443.08 570.373 468.975 583.733 498.412C611.743 560.255 648.933 646.09 667.093 703.63C668.233 707.21 668.043 710.98 666.523 714.255C660.543 727.165 650.463 737.942 638.083 744.568C627.123 750.508 615.593 750.813 602.763 750.584L602.803 750.661ZM622.023 752.945C631.613 751.575 639.343 748.49 648.213 741.826C648.553 742.473 654.683 752.146 652.743 755.916C651.793 757.858 636.603 765.436 636.143 765.665C633.903 766.769 631.233 766.122 629.793 764.103C622.103 752.945 622.633 753.326 622.023 752.984V752.945ZM627.883 771.11C627.543 769.777 627.813 768.406 628.533 767.264C631.003 769.435 634.513 769.892 637.513 768.444C650.153 762.161 654.223 759.876 655.483 757.325C656.393 755.535 656.473 753.555 656.093 751.575C658.723 750.356 660.543 752.717 661.913 755.268C669.263 769.016 669.943 775.185 645.163 783.525C641.283 784.857 637.783 786.152 634.583 786.685C630.893 787.295 632.073 788.056 627.883 771.148V771.11ZM631.463 809.915C629.823 804.393 630.593 797.005 631.733 789.77C635.153 790.531 642.463 787.79 646.343 786.419C653.843 783.905 663.663 780.554 667.893 773.662C670.483 773.433 677.983 776.975 683.383 777.965C683.383 780.783 682.513 781.925 679.613 783.601C678.853 784.02 678.623 784.972 679.043 785.695C679.463 786.457 680.413 786.685 681.143 786.266C684.983 784.058 686.393 782.039 686.463 778.193C689.133 778.003 691.223 777.051 693.663 775.908C695.303 780.173 694.763 782.915 691.983 784.819C691.263 785.314 691.113 786.266 691.573 786.952C692.023 787.637 693.013 787.828 693.703 787.333C699.223 783.563 697.733 777.774 696.483 774.614C725.443 763.075 755.633 787.218 728.983 804.583C719.773 810.6 708.663 813.57 696.823 813.228C686.163 812.885 674.663 809.382 664.203 814.446C656.173 818.331 650.573 826.975 641.743 822.824C637.023 820.616 633.143 815.779 631.393 809.877L631.463 809.915ZM714.713 821.263C703.443 822.558 691.643 819.892 680.113 821.263C669.223 822.558 661.613 833.106 649.963 830.364C646.843 829.603 643.913 828.041 641.433 825.947C651.983 829.983 658.113 820.882 665.643 817.226C675.123 812.657 686.393 816.008 696.823 816.312C709.273 816.655 721.033 813.532 730.773 807.173C734.543 804.736 740.403 799.976 742.043 793.388C743.983 808.772 729.743 819.511 714.713 821.225V821.263Z" fill="black"/>
<path d="M729.063 804.622C719.853 810.638 708.733 813.609 696.893 813.266C686.243 812.923 674.743 809.42 664.273 814.485C656.243 818.369 650.653 827.013 641.813 822.862C637.093 820.654 633.213 815.817 631.463 809.915C629.823 804.393 630.593 797.005 631.733 789.77C635.153 790.532 642.463 787.79 646.343 786.419C653.843 783.906 663.663 780.554 667.893 773.662C670.483 773.433 677.983 776.975 683.383 777.965C683.383 780.783 682.513 781.925 679.613 783.601C678.853 784.02 678.623 784.972 679.043 785.695C679.463 786.457 680.413 786.685 681.133 786.267C684.983 784.058 686.393 782.04 686.463 778.193C689.133 778.003 691.223 777.051 693.663 775.909C695.293 780.174 694.763 782.915 691.983 784.819C691.263 785.315 691.113 786.267 691.563 786.952C692.023 787.638 693.013 787.828 693.703 787.333C699.223 783.563 697.733 777.774 696.473 774.614C725.443 763.075 755.633 787.219 728.983 804.584L729.063 804.622Z" fill="white"/>
<path d="M461.053 831.431C446.283 836.305 433.953 829.945 420.593 822.938C397.023 810.6 399.653 814.675 383.553 811.095C379.403 810.181 375.783 809.382 373.463 806.069C365.203 794.492 372.623 787.333 382.333 777.317C385.263 778.612 396.603 789.046 419.183 785.848C419.293 787.79 420.093 789.77 421.573 791.522C424.853 795.406 429.233 797.5 434.363 797.767C429.763 802.451 427.283 807.211 426.713 812.618C426.643 813.456 427.253 814.218 428.083 814.332C428.923 814.408 429.683 813.799 429.803 812.961C430.793 803.669 438.213 798.833 439.013 797.576C442.173 797.234 445.173 796.548 448.113 795.71C444.033 800.509 441.863 805.688 441.753 811.21C441.753 812.047 442.403 812.771 443.273 812.771C444.113 812.771 444.793 812.085 444.833 811.248C444.953 805.916 447.153 801.08 451.613 796.396C452.103 795.901 452.143 795.139 451.803 794.568C452.103 794.492 454.693 793.654 455.413 793.464C461.623 791.598 465.423 787.599 471.213 788.856C476.273 789.922 479.893 793.464 481.073 798.605C483.963 810.943 473.083 827.47 461.093 831.431H461.053Z" fill="white"/>
<path d="M667.133 703.707C649.013 646.166 611.783 560.331 583.773 498.488C570.373 469.051 558.233 443.156 553.963 434.169C518.833 450.81 491.353 465.319 451.573 465.319C435.933 465.319 424.013 463.301 410.543 460.673C411.223 461.663 412.293 450.506 373.273 716.578C372.213 722.252 374.573 728.155 379.213 731.62C388.883 738.779 400.263 746.51 412.933 748.109C426.903 749.861 441.373 746.967 453.663 739.96C456.823 738.17 459.143 735.2 460.293 731.62C468.583 706.03 485.103 522.288 486.173 512.311C484.843 509.417 483.773 507.208 483.123 505.799C481.873 506.675 479.053 508.16 478.023 508.16C476.273 508.16 475.893 505.685 477.573 505.152C482.553 503.553 486.633 499.287 488.003 494.223C488.233 493.385 489.063 492.928 489.903 493.118C490.743 493.347 491.193 494.185 491.003 495.022C490.093 498.374 488.193 501.42 485.643 503.819C518.983 574.498 547.113 644.605 583.463 728.307C604.783 723.737 625.373 714.484 643.003 701.498C643.683 701.003 644.673 701.155 645.163 701.841C645.663 702.526 645.513 703.516 644.823 704.011C627.013 717.149 606.223 726.479 584.683 731.201L589.323 742.054C591.723 747.233 597.013 750.661 602.843 750.737C615.703 750.965 627.203 750.661 638.163 744.72C650.533 738.056 660.623 727.317 666.603 714.407C668.123 711.132 668.313 707.362 667.173 703.783L667.133 703.707ZM459.333 722.633C434.753 730.097 407.723 728.193 385.223 718.634C384.423 718.292 384.083 717.378 384.393 716.616C384.733 715.816 385.643 715.474 386.403 715.816C408.823 725.375 435.093 726.784 458.423 719.701C459.263 719.472 460.103 719.929 460.363 720.729C460.633 721.529 460.133 722.404 459.333 722.671V722.633Z" fill="white"/>
<path d="M545.633 398.982C545.893 399.782 546.773 400.239 547.573 399.972C550.923 398.906 555.563 397.078 564.013 395.098C567.703 394.222 571.893 393.156 574.023 395.935C575.933 398.411 573.873 403.78 564.663 406.408C564.323 406.522 562.413 407.055 562.153 407.093C561.543 407.207 559.943 407.093 553.663 408.655L552.903 408.845C550.963 409.302 551.563 412.234 553.543 411.853C556.403 411.282 559.483 410.825 562.453 410.14C565.043 409.949 566.903 410.292 567.593 411.092C567.743 411.244 568.163 411.739 567.823 413.148C567.133 416.157 561.353 419.622 557.393 420.193C556.403 420.422 537.793 423.887 527.363 425.296C522.983 426.172 518.073 427.124 512.853 428.114C513.083 425.372 513.083 422.745 513.043 420.117C520.053 414.633 519.633 403.704 510.003 400.277C509.393 398.106 508.703 395.935 507.943 393.765C512.473 392.851 515.333 392.508 519.293 389.538C521.003 388.243 520.353 388.548 520.773 387.977C524.273 381.35 527.893 374.534 530.323 367.451C532.153 362.081 535.353 362.12 537.673 364.138C541.293 367.26 540.073 372.973 538.853 377.39L535.843 380.779C534.973 381.769 535.693 383.369 536.993 383.369C538.173 383.369 538.433 382.302 540.983 379.675C547.683 377.009 556.673 371.792 563.483 369.736C572.123 367.146 575.393 373.848 572.463 378.152C564.013 377.123 554.113 381.35 545.323 383.902C544.483 384.13 544.033 385.006 544.263 385.806C544.483 386.644 545.363 387.101 546.163 386.872C551.493 385.311 556.823 383.331 562.183 382.074C578.443 378.19 581.603 386.263 573.533 391.785C570.033 390.3 565.613 391.556 561.653 392.47C557.653 393.346 552.863 394.945 548.633 396.354L546.623 397.04C545.823 397.306 545.363 398.182 545.633 398.982Z" fill="white"/>
<path d="M514.493 412.234C514.223 412.995 514.073 415.052 511.903 417.108C505.963 422.935 492.373 419.431 493.863 409.797C495.653 398.677 516.853 400.505 514.493 412.196V412.234Z" fill="white"/>
<path d="M497.253 430.894C469.613 435.464 400.603 445.669 377.693 429.637C360.373 417.527 356.143 381.579 353.103 362.272C364.673 359.873 380.313 358.768 396.303 363.833C400.453 365.395 404.483 367.146 408.443 369.203C408.443 376.362 409.283 394.336 418.003 396.697C435.933 401.495 462.463 401.381 492.563 396.583C492.763 397.763 492.643 396.621 494.053 403.057C489.023 407.855 489.143 416.88 496.563 421.069C497.063 429.333 496.413 429.485 497.213 430.894H497.253Z" fill="white"/>
<path d="M567.403 286.453C567.023 291.86 565.723 309.796 561.613 367.07C555.523 369.089 548.483 372.973 542.433 375.677C542.963 373.277 543.343 370.536 542.893 367.946C546.923 361.739 554.153 354.808 562.913 348.677L563.173 345.174C562.873 345.174 562.533 345.25 562.223 345.44C553.393 351.457 546.203 358.083 541.593 364.367C541.253 363.757 540.873 363.224 540.453 362.729C536.383 345.593 533.483 327.39 528.573 301.799C528.423 300.962 527.583 300.428 526.753 300.581C525.913 300.733 525.383 301.571 525.533 302.409C530.213 326.704 532.953 343.879 536.723 360.292C531.503 358.769 528.923 362.005 527.363 366.537C525.003 373.506 521.303 380.399 517.843 386.911C517.693 386.949 517.533 387.025 517.383 387.139C513.803 389.805 511.103 390.033 506.003 391.061C503.153 389.614 495.383 392.204 494.053 393.27C463.563 398.335 436.723 398.563 418.833 393.765C415.103 392.737 412.933 386.225 412.023 378.304C415.033 377.543 418.913 375.905 419.143 372.821C420.623 354.58 423.933 340.909 426.413 322.515C426.523 321.678 425.913 320.878 425.083 320.764C424.243 320.649 423.443 321.259 423.333 322.097C421.083 338.738 418.113 351.647 416.443 368.213C404.563 355.951 360.213 346.697 345.413 353.171C358.583 313.566 374.563 282.987 407.763 262.957C416.663 259.11 425.723 256.445 436.313 254.541C442.243 266.993 455.873 275.714 469.733 275.714C483.583 275.714 497.553 266.841 503.413 254.122C503.603 253.741 503.603 253.284 503.413 252.903C525.033 255.34 547.953 266.879 566.183 287.367C566.453 287.671 566.793 287.862 567.213 287.9L567.323 286.491L567.403 286.453Z" fill="white"/>
<path d="M500.753 252.637C500.753 252.637 500.673 252.713 500.673 252.751C495.463 264.137 483.013 272.553 469.613 272.553C457.283 272.477 445.143 264.899 439.503 253.893C442.403 253.436 445.673 252.979 448.643 252.637C448.983 253.208 449.363 253.741 449.893 254.16C457.813 260.557 467.253 264.137 476.813 260.824C481.033 259.301 485.453 257.282 485.903 252.789C485.903 252.56 485.903 252.294 485.903 252.065C490.813 252.18 496.643 252.332 500.793 252.675L500.753 252.637Z" fill="white"/>
<path d="M482.483 253.626C481.413 255.873 477.723 257.206 475.783 257.892C466.383 261.167 457.583 256.368 451.843 251.722C450.543 250.732 451.343 250.123 450.543 234.852C460.253 239.689 470.753 241.517 480.423 236.414C480.803 239.232 481.453 243.763 481.493 244.03C481.943 247.115 483.623 251.38 482.483 253.626Z" fill="white"/>
<path d="M502.353 166.992C501.853 158.081 500.413 150.541 498.083 144.182C491.883 144.753 484.003 143.115 476.203 141.059C471.483 139.117 466.723 137.67 461.883 136.527C453.173 147.952 439.053 152.255 427.133 149.894C425.423 148.256 422.643 149.97 423.253 152.255C425.763 161.775 426.873 172.095 424.093 181.615C422.723 185.614 420.893 186.985 418.423 182.301C415.563 176.893 405.053 161.661 396.223 162.994C392.343 163.565 389.223 166.992 388.083 170.572C384.503 182.034 395.273 200.161 408.633 195.896C410.353 195.324 412.783 192.506 415.413 193.458C418.003 194.411 420.053 201.227 421.163 203.093C430.293 218.363 449.133 235.195 466.033 236.376C474.673 236.947 482.143 233.444 488.193 225.942C501.323 209.567 503.603 188.203 502.393 167.068L502.353 166.992ZM398.663 181.349C397.483 177.807 400.563 173.771 402.353 175.751C402.923 176.398 402.893 177.35 402.243 177.921C400.753 179.254 401.593 181.768 403.573 181.92C404.413 181.996 405.053 182.758 404.983 183.595C404.753 186.223 399.883 184.928 398.663 181.349ZM444.453 159.871C443.883 159.262 443.883 158.272 444.533 157.7C448.873 153.588 455.573 152.331 461.123 154.54C461.923 154.844 462.303 155.758 462.003 156.558C461.693 157.358 460.783 157.738 459.983 157.434C455.573 155.682 450.083 156.748 446.663 159.985C446.053 160.556 445.063 160.556 444.493 159.909L444.453 159.871ZM456.103 165.735C459.793 165.85 460.103 168.706 460.103 172.362C460.103 176.017 459.603 179.102 456.103 178.95C452.713 178.835 452.103 176.017 452.103 172.362C452.103 168.706 452.443 165.621 456.103 165.735ZM465.653 210.938C459.603 210.443 454.273 205.797 452.943 199.894C452.753 199.056 453.283 198.219 454.123 198.028C454.963 197.838 455.793 198.371 455.983 199.209C457.013 203.778 461.283 207.472 465.963 207.853C467.983 208.005 467.753 211.09 465.733 210.938H465.653ZM480.573 188.546C478.863 190.184 476.733 191.136 474.793 191.935C474.033 192.278 473.113 191.935 472.773 191.136C472.433 190.336 472.773 189.46 473.573 189.117C475.323 188.356 477.113 187.594 478.403 186.337C479.393 185.347 480.233 183.748 479.783 182.339C479.553 181.691 479.323 181.234 477.343 179.33C472.893 174.951 469.693 169.163 468.393 163.032C468.203 162.194 468.743 161.394 469.573 161.204C470.413 161.051 471.213 161.547 471.403 162.384C472.543 167.906 475.443 173.161 479.473 177.122C480.803 178.416 482.143 179.635 482.713 181.425C483.473 183.748 482.633 186.566 480.543 188.584L480.573 188.546ZM491.163 175.865C487.773 175.751 487.163 172.933 487.163 169.277C487.163 165.621 487.503 162.537 491.163 162.651C494.853 162.765 495.153 165.621 495.153 169.277C495.153 172.933 494.663 176.017 491.163 175.865ZM498.693 154.121C498.393 154.92 497.513 155.339 496.713 155.073C492.683 153.626 488.113 154.083 484.423 156.253C482.673 157.281 481.113 154.616 482.863 153.588C487.313 150.96 492.873 150.427 497.743 152.179C498.543 152.483 498.963 153.359 498.693 154.159V154.121Z" fill="white"/>
<path d="M835.753 216.384L815.463 500.468C815.393 501.306 816.043 502.068 816.913 502.106C817.793 502.182 818.513 501.497 818.553 500.659L838.843 216.574C838.993 214.556 835.913 214.251 835.753 216.346V216.384Z" fill="black"/>
</g>
</svg>
