<svg width="1172" height="854" viewBox="0 0 1172 854" fill="none" xmlns="http://www.w3.org/2000/svg">
<path d="M1152.5 687C1152.5 687 1150.55 708.704 1133 713C1150.55 717.268 1152.5 739 1152.5 739C1152.5 739 1154.45 717.296 1172 713C1154.45 708.704 1152.5 687 1152.5 687Z" fill="#641ED6"/>
<path d="M50.8799 83C50.8799 83 48.69 106.135 29 110.714C48.69 115.264 50.8799 138.428 50.8799 138.428C50.8799 138.428 53.07 115.294 72.76 110.714C53.07 106.135 50.8799 83 50.8799 83Z" fill="#641ED6"/>
<path d="M1029.47 84C1029.47 84 1025.82 121.746 993 129.218C1025.82 136.641 1029.47 174.436 1029.47 174.436C1029.47 174.436 1033.11 136.69 1065.93 129.218C1033.11 121.746 1029.47 84 1029.47 84Z" fill="#641ED6"/>
<path d="M21.8799 493C21.8799 493 19.69 516.135 0 520.714C19.69 525.264 21.8799 548.428 21.8799 548.428C21.8799 548.428 24.07 525.294 43.76 520.714C24.07 516.135 21.8799 493 21.8799 493Z" fill="#641ED6"/>
<mask id="mask0_1_238" style="mask-type:luminance" maskUnits="userSpaceOnUse" x="177" y="0" width="846" height="854">
<path d="M1023 0H177V854H1023V0Z" fill="white"/>
</mask>
<g mask="url(#mask0_1_238)">
<path d="M993.88 430.455C988.8 428.516 983.72 426.577 978.59 424.719C976.13 423.873 977.36 424.392 973.78 402.951C973.34 400.11 973.48 401.64 988.61 389.403C991.81 386.863 992.35 383.531 990.28 380.117C985.61 372.305 980.94 364.494 976.18 356.682C974.05 353.214 970.83 352.203 967.17 353.814C961.82 356.218 956.54 358.567 951.22 361.025C950.02 361.571 949.28 361.353 948.27 360.615C931.01 347.396 930.79 348.898 931.17 346.003C931.96 340.458 932.64 334.914 933.38 329.315C933.93 324.917 932.04 322.24 927.7 321.093C919.1 318.963 910.41 316.832 901.81 314.675C897.33 313.61 894.46 315.139 892.79 319.427C890.85 324.562 888.86 329.779 886.98 334.996C886.37 336.607 885.5 336.99 883.92 337.208C863.57 339.83 863.81 341.25 862.01 338.82C858.68 334.477 855.21 330.134 851.8 325.737C849.06 322.186 845.73 321.476 841.85 323.797C834.23 328.413 826.64 332.947 819.02 337.563C815.14 339.912 814.16 343.162 816.01 347.314C818.36 352.449 820.63 357.666 823.03 362.8C823.58 364.057 823.31 364.74 822.49 365.75C809.32 382.93 810.71 383.094 808.07 382.712C802.33 381.974 796.65 381.237 790.91 380.636C786.76 380.172 784.03 382.111 783.05 386.181C780.83 394.866 778.7 403.552 776.49 412.292C775.42 416.553 776.9 419.503 781.16 421.114C786.38 423.108 791.57 425.129 796.84 427.068C798.23 427.533 798.78 428.215 798.91 429.663C801.67 450.339 802.96 450.202 800.85 451.759C796.18 455.228 791.57 458.833 787.03 462.439C783.84 464.979 783.29 468.311 785.37 471.78C790.04 479.591 794.79 487.403 799.46 495.215C801.59 498.683 804.81 499.694 808.47 498.028C813.75 495.679 819.02 493.357 824.24 490.954C826.69 489.779 825.46 490.189 843.05 502.835C844.2 503.627 844.67 504.31 844.45 505.703C844.39 506.249 844.26 506.905 844.04 507.697H960.15C960.42 505.839 960.07 505.402 952.75 489.26C952.15 488.059 952.28 487.266 953.16 486.119C966.32 468.939 964.93 468.775 967.58 469.158C987.22 471.78 984.62 471.261 989.73 470.96C993.31 464.76 990.96 472.272 998.94 440.315C1000.27 435.18 998.88 432.449 993.86 430.51L993.88 430.455ZM913.63 467.191C890.8 481.613 860.62 474.593 846.2 451.24C832.37 428.734 839.04 399.154 862.28 384.542C885.06 370.257 914.97 377.468 929.5 400.575C943 423.081 936.71 452.524 913.61 467.191H913.63Z" fill="#641ED6"/>
<path d="M961.84 642.569C582.07 641.777 602.47 644.153 602.47 640.903C602.47 637.652 582.67 640.029 961.84 639.237C993.72 639.237 1019.67 613.289 1019.67 581.415V567.048C1019.67 535.201 993.72 509.308 961.84 509.308C621.1 508.516 638.45 510.947 638.45 507.642C638.45 504.337 621.18 506.768 961.84 505.976C995.58 505.976 1023 533.371 1023 567.048V581.415C1023 615.146 995.58 642.569 961.84 642.569Z" fill="black"/>
<path d="M623.29 376.785C614.6 388.994 603.65 399.673 590.92 408.086C577.23 417.044 562.48 419.967 546.78 424.036C525.69 429.608 501.85 430.592 478.28 425.047C421.27 460.172 345.09 463.313 289.48 420.65C177.9 500.049 138.41 759.305 252.69 836.437C299.18 867.684 361.15 850.367 372.79 836.902C376.45 832.641 377.4 826.086 376.94 818.93C353.59 820.924 326.22 805.301 313.19 763.511C298.49 716.232 306.63 639.674 340.15 600.889C353.5 585.539 373.39 577.591 393.16 572.593C424.71 564.754 455.99 563.115 487.43 571.391C492.89 572.866 498.51 574.723 502.64 578.601C506.79 582.398 509.19 588.762 506.9 593.951C505.29 597.557 501.82 600.015 498.43 602.036C472.89 616.949 443.59 619.517 401.77 625.88C433.62 623.723 466.83 629.103 496.03 641.176C523.48 652.511 519.63 671.275 504.72 677.557C498.9 680.124 492.18 680.425 486.09 680.561C496.49 681.108 501.06 695.529 496.25 704.734C527.03 688.182 557.4 670.947 587.86 653.74C592.34 651.2 596.93 648.605 600.61 645C616.29 629.568 620.12 597.857 625.31 577.372C642 511.466 657.18 439.304 623.31 376.812L623.29 376.785ZM404.72 502.507C403.65 497.427 414.33 490.954 428.48 488.086C442.58 485.218 454.92 487.075 455.93 492.155C458.36 504.364 406.96 514.771 404.72 502.507ZM434.49 412.838C419.22 404.262 404.28 393.664 391.83 380.253C369.1 385.689 346.76 391.315 324.39 401.23C357.71 421.933 398.16 424.473 434.49 412.838Z" fill="#F5F0E9"/>
<path d="M403.11 391.069C397.04 388.038 386.17 389.048 379.15 388.338C358.26 386.262 340.17 371.513 329.14 353.623C327.61 351.083 326.14 348.488 324.8 345.812C337.88 348.079 351.7 346.467 364.05 341.469C365.39 344.145 366.78 346.686 368.25 349.226C370.93 353.842 373.85 358.294 376.94 362.636C384.56 373.043 393.36 382.657 403.11 391.069Z" fill="#641ED6"/>
<path d="M432.69 150.659C428.29 151.806 423.95 153.199 419.66 154.811C401.49 161.748 386.01 174.449 372.98 188.652C364.78 197.692 359.21 203.92 353.75 213.752C335.56 207.252 314.64 212.223 299.01 223.367C298.82 220.362 298.74 217.303 298.68 214.299C298.55 205.285 298.55 196.081 299.56 187.122C336.21 150.878 389.37 140.717 432.69 150.659Z" fill="#641ED6"/>
<path d="M654.26 188.187C659.67 226.098 657.59 265.101 648.52 302.274C649.53 290.065 649.26 277.638 647.98 265.566C645.85 246.201 643.91 227.655 635.36 210.011C621.67 181.714 596.57 160.738 568.14 154.21C542.63 148.256 516.6 145.251 490.48 145.142C463.74 124.193 430.53 114.906 396.82 114.906C407.04 106.986 417.58 96.688 428.13 90.953C481.55 61.509 545.19 61.536 602.04 82.267C619 88.413 635.74 96.743 647.62 110.372C659.45 123.92 665.46 143.831 658.77 160.574C653.99 172.592 651.77 171.526 654.23 188.215L654.26 188.187Z" fill="#641ED6"/>
<path d="M336.84 348.489C289.97 348.489 261.48 303.777 268.99 265.511C276.42 228.065 316.93 201.38 351.26 211.295C353.39 211.896 352.47 215.091 350.34 214.49C344.63 212.851 338.4 212.223 332.31 212.688C303.68 214.955 277.87 237.952 272.27 266.167C266.73 294.381 281.91 325.436 307.59 338.383C324.61 346.986 345.88 347.423 364.46 339.53C365.3 339.175 366.29 339.557 366.64 340.404C367 341.251 366.61 342.234 365.77 342.589C356.51 346.522 346.59 348.461 336.84 348.461V348.489Z" fill="black"/>
<path d="M343.32 275.562C332.12 263.572 312.61 260.103 297.97 267.45C295.98 268.406 294.53 265.457 296.47 264.473C312.4 256.471 333.59 260.267 345.75 273.295C346.38 273.978 346.35 275.016 345.66 275.644C344.98 276.273 343.94 276.245 343.32 275.562Z" fill="black"/>
<path d="M319.44 292.169C317.37 283.456 319.25 273.869 324.44 266.549C325.73 264.746 328.43 266.685 327.17 268.488C322.5 275.043 320.84 283.62 322.69 291.404C323.21 293.534 319.96 294.326 319.44 292.169Z" fill="black"/>
<path d="M433.73 414.34C403.82 399.373 379.26 374.354 364.59 343.872C364.27 343.217 363.91 342.534 363.58 341.769C353.09 319.263 346.7 293.616 345.61 269.526C345.5 267.313 348.86 267.177 348.94 269.362C350.03 293.015 356.29 318.225 366.61 340.376C366.94 341.114 367.27 341.742 367.6 342.397C381.97 372.251 405.97 396.723 435.23 411.363C437.19 412.346 435.72 415.323 433.73 414.34Z" fill="black"/>
<path d="M517.25 429.636C515.07 429.308 515.56 426.003 517.74 426.331C544.65 430.346 582.56 418.82 609.25 392.872C640.25 362.773 652.62 319.673 649.59 277.228C649.42 275.098 652.76 274.688 652.92 276.982C656.06 320.465 643.22 364.494 611.59 395.248C584.09 421.961 545.08 433.76 517.25 429.608V429.636Z" fill="black"/>
<path d="M500.94 293.807C450.52 292.906 426.87 210.256 463.01 163.169C463.58 162.431 464.62 162.295 465.35 162.868C466.09 163.442 466.23 164.48 465.66 165.217C431.1 210.256 453.55 289.628 501 290.502C511 290.803 523.92 287.498 530.72 278.02C531.97 276.245 534.73 278.157 533.42 279.96C526.43 289.738 512.88 294.135 500.94 293.835V293.807Z" fill="black"/>
<path d="M552.13 240.192C559.1 219.953 554.59 189.553 538.01 172.428C528.45 162.54 517.01 159.154 506.35 160.82C505.48 160.956 504.58 160.355 504.44 159.427C504.3 158.525 504.93 157.679 505.83 157.515C507.83 157.214 510.07 157.078 512.5 157.16C522.71 157.324 532.38 161.803 540.41 170.106C557.81 188.105 562.65 219.898 555.27 241.284C554.56 243.387 551.39 242.295 552.1 240.192H552.13Z" fill="black"/>
<path d="M595.97 266.713C567.35 226.453 589.83 158.007 631.53 159.263C673.84 160.028 692.99 229.048 663.16 267.942C644.24 292.633 614.03 292.142 595.97 266.713ZM598.7 264.774C626.02 303.231 673.38 276.054 674.34 223.476C674.64 207.334 670.27 192.094 662.07 180.567C653.99 169.205 643.12 162.814 631.48 162.595C592.88 161.339 571.44 226.426 598.7 264.774Z" fill="black"/>
<path d="M584.36 202.937C575.35 194.142 560.24 194.114 557.46 201.243C556.67 203.319 553.55 202.09 554.34 200.041C555.68 196.545 558.91 194.142 563.39 193.24C571.55 191.547 580.27 194.306 586.68 200.56C588.27 202.09 585.92 204.493 584.36 202.937Z" fill="black"/>
<path d="M557.49 291.787C557.49 289.328 561.23 290.639 567.35 285.696C574.94 279.769 574.04 271.848 572.92 261.824C571.14 246.31 569.78 222.848 567.29 194.743C567.21 193.814 567.89 193.022 568.79 192.94C571.93 192.503 570.16 195.699 575.68 256.143C576.88 270.127 581.74 286.215 559.7 293.398C558.66 293.753 557.49 292.961 557.49 291.814V291.787Z" fill="black"/>
<path d="M497.07 229.813C502.8 256.088 497.2 279.605 484.56 282.363C471.91 285.122 457.02 266.085 451.29 239.809C445.55 213.534 451.15 190.017 463.8 187.259C476.44 184.5 491.33 203.537 497.07 229.813Z" fill="black"/>
<path d="M618.01 228.447C617.69 247.102 610.12 262.042 601.16 261.878C592.2 261.714 585.21 246.501 585.54 227.846C585.87 209.191 593.43 194.251 602.39 194.415C611.35 194.579 618.34 209.792 618.01 228.447Z" fill="black"/>
<path d="M394.97 147.327C384.51 153.309 374.97 155.958 363.72 158.198C356.32 159.345 348.97 158.935 341.62 158.853C358.26 151.752 376.99 147.955 394.97 147.3V147.327Z" fill="#641ED6"/>
<path d="M421.46 116.627C375.93 110.29 323.32 120.615 282.65 153.746C240.92 124.739 240.4 51.922 284.92 17.5622C317.37 -7.53864 367.84 -5.46284 398.14 22.233C423.65 45.613 432.22 84.807 421.43 116.627H421.46Z" fill="#641ED6"/>
<path d="M465.33 224.023C428.26 216.976 397.15 213.562 358.01 212.196C355.8 212.114 355.93 208.782 358.12 208.864C397.45 210.229 428.7 213.671 465.93 220.718C466.83 220.882 467.43 221.756 467.27 222.684C467.1 223.613 466.2 224.186 465.33 224.023Z" fill="black"/>
<path d="M448.83 155.74C406.49 180.24 371.45 223.64 353.15 269.362C351.67 273.022 347.93 271.493 346.35 267.887C343.48 261.332 345.94 238.58 350.83 212.879C355.23 189.69 360.22 170.052 365.8 151.124C393.55 144.951 423.13 145.634 448.86 155.74H448.83Z" fill="#641ED6"/>
<path d="M514.49 346.904C509.47 319.974 483.63 304.569 459.24 309.185C457.11 309.595 456.42 306.317 458.61 305.907C484.99 300.964 512.42 317.625 517.77 346.303C517.93 347.205 517.33 348.079 516.43 348.243C515.56 348.407 514.66 347.833 514.49 346.904Z" fill="black"/>
<path d="M469.12 133.097C468.28 133.097 467.57 132.469 467.46 131.622C465.52 114.578 470.22 97.098 480.32 83.633C481.63 81.885 484.31 83.878 483 85.654C473.39 98.436 468.93 115.07 470.76 131.267C470.87 132.195 470.22 133.015 469.29 133.124C469.23 133.124 469.15 133.124 469.1 133.124L469.12 133.097Z" fill="black"/>
<path d="M554.26 150.277C562.48 130.584 576.88 113.349 594.85 101.769C596.71 100.567 598.51 103.38 596.65 104.582C579.26 115.807 565.3 132.496 557.35 151.588C556.5 153.636 553.42 152.352 554.26 150.304V150.277Z" fill="black"/>
<path d="M329.77 125.04C339.3 114.797 349.13 106.986 358.23 102.506C381.53 91.117 406.19 87.375 427.74 91.963C429.93 92.428 429.16 95.733 427.03 95.214C406.22 90.789 382.29 94.449 359.68 105.511C350.96 109.799 341.46 117.337 332.2 127.307C330.7 128.918 328.24 126.651 329.74 125.04H329.77Z" fill="black"/>
<path d="M857.48 135.255C856.08 137.904 857.4 136.511 849.99 145.989C849.01 147.245 849.53 146.59 854.39 158.389C854.69 159.154 855.07 159.454 855.87 159.536C859.14 159.837 862.42 160.219 865.73 160.547C868.35 160.793 869.74 162.267 869.8 164.944C869.88 170.188 869.99 175.432 870.04 180.676C870.1 183.353 868.76 184.828 866.11 185.183C862.8 185.62 859.5 186.139 856.17 186.576C855.46 186.658 855.16 186.959 854.91 187.641C850.81 198.375 850.02 199.058 850.87 200.151C852.94 202.827 855.13 205.422 857.26 208.072C858.87 210.065 858.79 212.032 857.04 213.862C853.41 217.658 849.77 221.428 846.11 225.17C844.15 227.191 842.29 227.327 840.05 225.634C831.23 218.942 831.8 218.778 830.3 219.461C818.85 224.678 818.8 223.886 818.66 225.552C818.36 228.939 818.01 232.298 817.63 235.685C817.38 238.061 815.9 239.4 813.53 239.454C808.15 239.564 802.77 239.646 797.41 239.727C795.04 239.755 793.51 238.471 793.15 236.122C792.66 232.735 792.2 229.321 791.79 225.907C791.6 224.35 791.24 225.088 779.99 220.335C778.46 219.68 779.09 219.844 770.34 226.89C768.27 228.556 766.36 228.474 764.47 226.645C760.68 222.957 756.88 219.297 753.08 215.61C751.33 213.889 751.14 211.923 752.59 209.929C759.42 200.697 759.58 201.434 758.9 199.932C753.74 188.57 754.48 188.433 753 188.297C749.67 187.996 746.34 187.587 743 187.259C740.35 186.986 738.99 185.538 738.93 182.862C738.85 177.617 738.74 172.373 738.69 167.129C738.66 164.452 740 162.978 742.65 162.623C745.87 162.213 749.09 161.721 752.34 161.311C754.2 161.093 753.36 160.629 758 149.649C758.38 148.775 758.44 148.201 757.78 147.436C755.68 144.951 753.66 142.411 751.58 139.871C749.89 137.768 749.94 135.856 751.83 133.889C755.46 130.12 759.09 126.323 762.75 122.581C764.61 120.67 766.52 120.533 768.62 122.144C777.36 128.754 776.96 129.082 778.48 128.372C781.95 126.76 785.48 125.258 789 123.811C790.45 123.21 789.93 123.565 791.16 112.175C791.4 109.799 792.88 108.461 795.28 108.433C800.66 108.324 806.04 108.242 811.4 108.16C813.77 108.133 815.3 109.416 815.66 111.765C817.33 123.128 816.64 122.745 818.17 123.319C830.14 127.826 829.53 128.317 830.71 127.334C833.17 125.258 835.68 123.237 838.17 121.216C840.6 119.249 842.4 119.331 844.64 121.516C848.35 125.149 852.12 128.727 855.81 132.414C856.55 133.179 856.96 134.299 857.56 135.337L857.48 135.255ZM803.78 145.142C787.66 145.716 775.15 158.826 775.7 174.695C776.24 190.837 789.38 202.991 804.95 202.609C821.15 202.199 833.66 188.87 833.03 172.974C832.4 156.859 819.21 144.924 803.78 145.142Z" fill="#D9FE7C"/>
<path d="M384.64 453.589C231.14 453.589 160.37 251.254 281.61 152.435C341.6 103.544 437.93 98.382 495.37 146.917C532.49 178.164 556.28 222.711 560.65 269.144C562.59 289.519 559.59 312.08 551.7 336.116C528.4 407.512 457.11 453.617 384.64 453.617V453.589ZM283.72 155.029C196.64 226.016 208.79 356.436 290.49 419.311C377.51 486.065 514.49 439.359 548.53 335.078C556.28 311.452 559.23 289.383 557.32 269.471C552.71 220.226 525.86 175.023 489.45 146.453C433.7 102.834 341.84 107.668 283.69 155.057L283.72 155.029ZM390.98 421.414C271.94 421.414 213.36 269.471 298.38 185.948C349.49 135.419 434.03 133.37 481.14 172.92C511.16 198.157 530.42 234.21 534 271.848C535.55 288.645 533.09 306.89 526.7 326.119C507.94 383.859 450.25 421.442 390.95 421.442L390.98 421.414ZM300.73 188.297C235.18 252.701 257.69 358.048 325.26 399.782C395.16 443.238 497.39 405.518 523.56 325.054C529.79 306.262 532.19 288.454 530.69 272.121C527.19 235.357 508.35 200.123 479.01 175.432C433.78 137.467 350.91 138.669 300.73 188.297Z" fill="black"/>
<path d="M471.99 568.059C454.98 565.327 437.47 565.327 420.26 567.458C411.87 531.76 405.46 507.97 405.84 504.501C414.44 513.269 454.87 504.037 455.9 493.275C456.48 494.04 471.15 564.071 471.99 568.059Z" fill="#D9FE7C"/>
<path d="M486.82 637.625C469.94 631.616 452.24 627.82 434.41 626.263C433.94 624.515 433.53 622.849 433.15 621.128C449.38 618.67 465.79 615.857 481.03 610.257C481.2 610.995 484.47 626.754 486.85 637.625H486.82Z" fill="#D9FE7C"/>
<path d="M469.07 759.933C477.35 753.706 485.7 743.846 484.23 733.631C483.22 727.158 476.88 721.34 470.55 722.815C480.35 718.882 490.89 714.348 496.06 705.116C501.19 695.911 496.66 681.08 486.11 680.561C489.31 680.507 492.59 680.37 495.78 679.96C495.92 680.643 507.56 735.515 508.59 740.568C513.89 765.15 484.37 778.233 469.07 759.933Z" fill="#D9FE7C"/>
<path d="M336.49 805.901C289.51 763.866 297.32 647.895 338.86 599.824C350.42 586.522 367.54 577.372 392.73 570.981C424.47 563.115 456.1 561.421 487.83 569.779C493.52 571.309 499.39 573.275 503.76 577.4C507.94 581.251 511.19 588.298 508.43 594.634C506.6 598.759 502.78 601.435 499.28 603.484C477.4 616.239 452.63 619.981 425.56 623.996C451.07 625.225 475.22 630.769 496.66 639.619C528.78 652.893 522 679.223 493.65 681.845C499.74 686.953 501.74 697.714 497.7 705.471L497.5 705.853C493.02 713.856 484.69 718.554 477.1 721.886C489.09 727.13 491.06 745.512 470.05 761.272C455.82 771.842 436.32 775.447 419.17 778.015C412.88 778.916 413.62 780.637 413.38 784.515C413.24 802.269 397.51 819.066 377.05 820.623C375.82 820.732 347.39 815.707 336.49 805.901ZM393.55 574.204C369.05 580.404 352.49 589.226 341.4 601.981C307.67 641.012 300.41 716.779 314.77 763.02C328.54 807.158 358.86 821.661 381.91 816.499C397.56 813.112 409.93 799.018 410.04 784.406V783.559C410.15 778.151 411.87 775.638 418.7 774.71C439.71 771.596 463.2 767.007 476.58 750.538C479.26 747.287 483.57 740.841 482.56 733.877C481.72 728.441 476.39 723.252 470.9 724.454C468.96 724.945 467.98 722.05 469.89 721.285C480.21 717.134 489.88 712.736 494.55 704.324L494.69 704.023C498.98 695.802 495.07 682.692 485.98 682.255C485.08 682.2 484.39 681.463 484.39 680.561C484.42 678.049 486.99 679.414 495.54 678.322C499.03 677.803 501.66 677.093 504 676.055C509.93 673.569 514.08 668.653 514.58 663.545C515.75 652.429 501.52 645.3 495.37 642.76C476.91 635.112 455.96 629.868 434.24 627.984C405.13 625.334 400.48 629.704 400.07 626.099C399.97 625.198 400.59 624.406 401.49 624.269C442.44 618.042 472.51 615.283 497.59 600.643C500.62 598.868 503.92 596.601 505.37 593.323C507.39 588.707 504.96 583.053 501.49 579.885C497.64 576.28 492.23 574.477 486.96 573.057C455.6 564.808 424.49 566.584 393.52 574.259L393.55 574.204Z" fill="black"/>
<path d="M401.74 627.547H366.86C364.65 627.547 364.65 624.214 366.86 624.214H401.74C403.95 624.214 403.95 627.547 401.74 627.547Z" fill="black"/>
<path d="M364.78 684.822C362.6 684.822 362.57 681.518 364.76 681.49C409.66 680.534 487.04 678.896 486.11 678.896C488.3 678.896 488.33 682.2 486.14 682.228L364.84 684.822H364.81H364.78Z" fill="black"/>
<path d="M366.56 737.51C365.66 737.346 365.06 736.472 365.22 735.571C365.39 734.669 366.29 734.041 367.16 734.232C404.42 741.279 469.34 721.45 470 721.259C472.16 720.658 473.06 723.799 470.98 724.454C442.88 733.085 395.46 742.945 366.53 737.537L366.56 737.51Z" fill="black"/>
<path d="M412.58 780.938H371.56C369.35 780.938 369.35 777.605 371.56 777.605H412.58C414.8 777.605 414.8 780.938 412.58 780.938Z" fill="black"/>
<path d="M428.13 486.447C464.26 479.073 468.91 500.814 432.52 508.216C396.41 515.59 391.52 493.876 428.13 486.447ZM406.96 500.022C406 501.469 406.17 502.453 407.04 503.327C409.69 506.031 419.3 507.506 431.9 504.938C445.28 502.207 453.94 496.69 454.27 493.139C454.32 492.784 454.32 492.593 454.29 492.511C454.16 491.882 453.69 491.309 452.87 490.763C443.91 484.808 412.86 491.063 406.96 500.049V500.022Z" fill="black"/>
<path d="M404.88 450.803L413.92 494.259C414.55 497.236 416.95 499.475 419.99 499.749C426.3 500.349 437.14 500.213 444.62 493.958C446.45 492.429 447 489.834 446.48 487.512L436.73 443.975" fill="black"/>
<path d="M227.37 718.772C238.46 672.777 277.27 634.976 321.74 626.809C323.9 626.427 324.52 629.677 322.34 630.087C279.13 638.007 241.43 674.798 230.62 719.537C230.1 721.695 226.85 720.93 227.37 718.745V718.772Z" fill="black"/>
<path d="M688.16 602.364C671.19 554.402 670.76 555.358 671.25 553.364C671.88 550.851 674.91 550.305 676.47 551.562C677.86 552.654 677.45 553.31 694.08 601.162H691.33L708.29 554.156C709 551.971 710.55 550.961 712.47 550.961C714.54 550.961 716.04 551.971 716.75 554.156L733.28 601.162H730.52C749.12 549.677 746.77 550.961 750.68 550.961C753.57 550.961 754.12 553.337 753.22 556.014L736.5 602.364C735.08 606.133 731.53 606.461 729.35 604.959C727.13 603.457 728.23 603.539 710.42 554.812H714.49C696.24 604.44 697.63 603.429 695.5 604.959C693.37 606.488 689.88 606.215 688.18 602.364H688.16Z" fill="black"/>
<path d="M781.08 602.364C764.12 554.402 763.68 555.358 764.17 553.364C764.53 551.944 765.65 550.934 767.31 550.934C771.3 550.934 769.31 550.934 787.01 601.135H784.25L801.21 554.129C801.92 551.944 803.48 550.934 805.39 550.934C807.46 550.934 808.97 551.944 809.68 554.129L826.2 601.135H823.44C841.58 550.169 840.24 552.381 841.5 551.48C842.02 551.125 842.7 550.934 843.6 550.934C846.5 550.934 847.02 553.31 846.14 555.986L829.43 602.337C828.61 604.467 827.16 605.751 824.92 605.751C823.96 605.751 823.09 605.478 822.27 604.932C820.06 603.429 821.15 603.511 803.34 554.785H807.41C789.16 604.413 790.56 603.402 788.43 604.932C786.38 606.407 782.83 606.243 781.11 602.337L781.08 602.364Z" fill="black"/>
<path d="M874 602.364C857.04 554.402 856.6 555.358 857.09 553.364C857.45 551.944 858.57 550.934 860.24 550.934C864.22 550.934 862.23 550.934 879.93 601.135H877.17C894.9 552.627 893.89 553.037 895.77 551.698C896.51 551.179 897.36 550.934 898.31 550.934C900.39 550.934 901.89 551.944 902.6 554.129L919.13 601.135H916.37C934.5 550.169 933.16 552.381 934.42 551.48C935.46 550.742 937.84 550.66 938.71 551.698C940.92 554.32 938.85 555.331 922.29 602.337C921.86 603.511 921.26 604.358 920.46 604.932C919.67 605.505 918.8 605.751 917.76 605.751C916.8 605.751 915.93 605.478 915.11 604.932C912.9 603.429 913.99 603.511 896.18 554.785H900.25C882.01 604.413 883.4 603.402 881.27 604.932C879.87 605.942 875.64 606.188 873.95 602.337L874 602.364Z" fill="black"/>
<path d="M181.51 146.425C179.59 145.306 181.29 142.41 183.2 143.53C193.91 149.785 203.99 157.214 213.14 165.572C213.82 166.2 213.87 167.238 213.25 167.921C210.49 170.898 208.25 162.049 181.51 146.398V146.425Z" fill="black"/>
<path d="M220.65 154.128C216.93 146.808 214.23 139.024 212.62 130.966C212.18 128.781 215.46 128.18 215.9 130.311C219.77 149.676 226.17 153.199 222.89 154.838C222.07 155.248 221.06 154.947 220.65 154.1V154.128Z" fill="black"/>
<path d="M178.42 178.218C189.7 176.58 201.17 176.334 212.51 177.508C214.72 177.754 214.34 181.059 212.15 180.84C201.12 179.693 189.92 179.912 178.91 181.523C176.75 181.878 176.24 178.546 178.42 178.218Z" fill="black"/>
<path d="M560.74 770.503C560.13 769.793 560.24 768.755 560.95 768.154C561.66 767.553 562.7 767.663 563.3 768.373C586.36 796.014 624.38 811.172 660.08 807.048C678.54 804.918 697.55 794.812 705.86 780.281C698.43 776.649 691 771.923 688.16 764.112C685.4 756.519 689.39 746.468 697.44 745.266C708.75 743.627 718.69 760.151 710.47 778.724C761.11 800.985 832.37 780.117 876.9 699.325C877.33 698.506 878.37 698.233 879.16 698.67C879.98 699.107 880.26 700.117 879.82 700.937C834.45 783.258 761.28 804.781 708.97 781.729C700.31 797.407 680.4 808.031 660.43 810.353C624.13 814.587 584.77 799.346 560.71 770.503H560.74ZM692.34 752.613C690.51 755.672 690.1 759.714 691.27 762.965C693.76 769.793 700.75 774.109 707.33 777.304C717.05 755.645 699.3 740.868 692.31 752.613H692.34Z" fill="black"/>
</g>
</svg>
