<svg width="1318" height="996" viewBox="0 0 1318 996" fill="none" xmlns="http://www.w3.org/2000/svg">
<path d="M1158.51 758.116H1129.05C1127.1 758.116 1127.1 755.142 1129.05 755.142H1157.03V98.967H232.698V755.142H258.518C260.468 755.142 260.468 758.116 258.518 758.116H231.238C230.418 758.116 229.748 757.442 229.748 756.629V97.48C229.748 96.667 230.418 95.993 231.238 95.993H1158.54C1159.35 95.993 1160.02 96.667 1160.02 97.48V756.629C1160.02 757.442 1159.35 758.116 1158.54 758.116H1158.51Z" fill="black"/>
<path d="M408.618 758.115H382.798C380.848 758.115 380.848 755.142 382.798 755.142H408.618C409.428 755.142 410.098 755.815 410.098 756.629C410.098 757.442 409.428 758.115 408.618 758.115Z" fill="black"/>
<path d="M231.238 97.479V160.651H1158.54V97.479H231.238ZM282.848 139.044C284.218 140.438 282.108 142.529 280.738 141.111L269.508 129.634C257.568 141.088 258.118 141.274 257.008 141.274C255.678 141.274 255.008 139.671 255.958 138.718L267.417 127.52L256.198 116.043C254.848 114.649 256.918 112.558 258.308 113.975L269.528 125.452L281.008 114.231C282.388 112.86 284.498 114.974 283.078 116.345L271.598 127.566L282.828 139.044H282.848ZM318.397 141.297C310.267 141.297 303.647 134.722 303.647 126.637C303.647 118.552 310.267 111.884 318.397 111.884C326.537 111.884 333.038 118.506 333.038 126.637C333.038 134.769 326.467 141.297 318.397 141.297ZM381.468 127.799H355.728C353.768 127.799 353.768 124.825 355.728 124.825H381.468C383.428 124.825 383.428 127.799 381.468 127.799Z" fill="black"/>
<path d="M318.397 114.858C311.897 114.858 306.618 120.156 306.618 126.638C306.618 133.12 311.917 138.324 318.397 138.324C324.887 138.324 330.088 133.073 330.088 126.638C330.088 120.202 324.837 114.858 318.397 114.858Z" fill="black"/>
<path d="M368.828 600.06H368.788C366.828 600.06 366.828 597.086 368.788 597.086C369.598 597.086 370.298 597.76 370.298 598.573C370.298 599.386 369.648 600.06 368.828 600.06Z" fill="black"/>
<path d="M314.518 600.06H263.258C262.448 600.06 261.768 599.386 261.768 598.573V196.592C261.768 195.779 262.448 195.105 263.258 195.105H1059.52C1060.33 195.105 1061 195.779 1061 196.592V383.271C1061 385.223 1058.03 385.223 1058.03 383.271V198.079H264.748V597.109H314.518C316.478 597.109 316.478 600.083 314.518 600.083V600.06Z" fill="black"/>
<path d="M408.608 414.102H310.407C309.597 414.102 308.917 413.428 308.917 412.615V253.491C308.917 252.678 309.597 252.004 310.407 252.004H613.338C614.158 252.004 614.828 252.678 614.828 253.491V383.271C614.828 384.085 614.158 384.758 613.338 384.758C612.528 384.758 611.858 384.085 611.858 383.271V254.978H311.897V411.128H408.608C410.568 411.128 410.568 414.102 408.608 414.102Z" fill="black"/>
<path d="M419.167 366.287C440.817 366.287 458.368 348.739 458.368 327.093C458.368 305.446 440.817 287.898 419.167 287.898C397.507 287.898 379.958 305.446 379.958 327.093C379.958 348.739 397.507 366.287 419.167 366.287Z" fill="#641ED6"/>
<path d="M511.298 382.179C535.868 358.899 519.598 317.08 485.348 317.08C451.088 317.08 434.847 358.876 459.438 382.179C460.847 383.526 458.807 385.687 457.387 384.34C449.297 376.673 444.657 365.916 444.657 354.787C444.657 332.367 462.898 314.129 485.348 314.129C507.798 314.129 526.058 332.367 526.058 354.787C526.058 365.916 521.408 376.673 513.328 384.34C511.908 385.687 509.858 383.526 511.278 382.179H511.298Z" fill="black"/>
<path d="M231.748 75.989L229.218 18.5337C229.118 16.5589 232.098 16.466 232.168 18.3943L234.698 75.85C234.788 77.825 231.818 77.964 231.748 75.989Z" fill="black"/>
<path d="M198.727 97.2709L154.477 72.9689C152.757 72.0159 154.177 69.437 155.897 70.367L200.147 94.669C201.857 95.621 200.447 98.1999 198.727 97.2709Z" fill="#D9FE7C"/>
<path d="M1019.01 383.271V258.997H668.738V383.271C668.738 384.084 668.068 384.758 667.258 384.758C666.438 384.758 665.768 384.084 665.768 383.271V257.533C665.768 256.72 666.438 256.046 667.258 256.046H1020.5C1021.31 256.046 1021.99 256.72 1021.99 257.533V383.271C1021.99 385.222 1019.01 385.222 1019.01 383.271Z" fill="black"/>
<path d="M839.338 383.271H740.407L793.978 317.358L839.338 383.271Z" fill="#641ED6"/>
<path d="M1009.76 383.271H868.887L937.748 288.178L1009.76 383.271Z" fill="#641ED6"/>
<path d="M862.637 320.309C873.597 320.309 882.488 311.426 882.488 300.468C882.488 289.51 873.597 280.627 862.637 280.627C851.677 280.627 842.798 289.51 842.798 300.468C842.798 311.426 851.677 320.309 862.637 320.309Z" fill="#641ED6"/>
<path d="M1129.05 815.385H408.618C407.798 815.385 407.127 814.711 407.127 813.898V722.545C407.127 720.594 410.098 720.594 410.098 722.545V812.411H1127.58V384.735H410.098V574.852C410.098 576.804 407.127 576.804 407.127 574.852V383.271C407.127 382.458 407.798 381.784 408.618 381.784H1129.05C1129.86 381.784 1130.53 382.458 1130.53 383.271V813.898C1130.53 814.711 1129.86 815.385 1129.05 815.385Z" fill="black"/>
<path d="M459.228 542.976V542.535C459.228 540.583 462.198 540.583 462.198 542.535V542.976C462.198 544.928 459.228 544.928 459.228 542.976Z" fill="black"/>
<path d="M699.627 600.06H460.688C459.877 600.06 459.208 599.387 459.208 598.574V563.654C459.208 561.702 462.177 561.702 462.177 563.654V597.087H698.137V498.973H489.528C487.578 498.973 487.578 495.999 489.528 495.999H699.627C700.437 495.999 701.118 496.673 701.118 497.486V598.55C701.118 599.363 700.437 600.037 699.627 600.037V600.06Z" fill="black"/>
<path d="M460.108 597.226L699.048 496.138C700.878 495.395 701.997 498.113 700.207 498.88L461.268 599.967C459.438 600.734 458.348 597.993 460.108 597.226Z" fill="black"/>
<path d="M699.068 599.945L488.618 510.938C486.838 510.172 487.948 507.453 489.788 508.197L700.228 597.203C702.038 597.97 700.908 600.688 699.068 599.945Z" fill="black"/>
<path d="M408.618 383.271V574.852L392.558 581.056L408.618 383.271Z" fill="black"/>
<path d="M382.798 756.628L408.618 722.545V756.628H382.798Z" fill="black"/>
<path d="M350.538 679.982C396.508 609.957 394.108 611.885 396.438 610.793L429.848 594.948C442.048 589.186 452.788 577.802 445.488 566.488C444.218 564.49 441.658 563.676 439.428 564.583L383.008 586.329C379.448 587.769 382.888 585.678 326.788 647.664C325.488 649.128 323.258 647.153 324.588 645.69L376.568 587.7C368.368 584.726 362.508 584.145 354.998 584.331C353.958 584.331 353.148 584.331 352.798 584.702C351.428 586.12 349.308 584.075 350.658 582.658C351.888 581.357 353.628 581.357 354.838 581.357C362.528 581.194 370.038 581.798 378.848 585.376C381.428 583.239 380.258 584.447 438.378 561.795C441.938 560.377 446.008 561.678 448.028 564.861C456.488 577.965 445.008 591.068 431.158 597.597C395.808 614.464 397.648 613.233 396.998 614.116L353.078 681.585C352.028 683.188 349.518 681.631 350.588 679.959L350.538 679.982Z" fill="black"/>
<path d="M329.647 847.818L338.948 812.201C338.988 812.015 339.088 811.829 339.198 811.69L418.818 706.653C420.508 704.353 421.608 701.704 421.978 698.986L431.668 625.941C434.408 611.676 411.218 609.213 406.288 627.428C389.718 689.228 390.908 685.023 390.718 685.325L380.568 701.332C379.518 703.005 377.008 701.402 378.058 699.753L388.098 683.931L403.428 626.661C409.408 604.682 438.058 608.516 434.598 626.405L424.928 699.358C424.508 702.564 423.228 705.724 421.208 708.442L341.758 813.247L332.528 848.584C332.048 850.49 329.158 849.746 329.668 847.841L329.647 847.818Z" fill="black"/>
<path d="M231.727 817.591L254.848 773.425C255.678 766.873 271.507 644.527 271.627 643.714C272.527 636.837 278.227 632.098 283.517 627.126C289.867 621.155 327.577 583.517 328.187 582.82C330.557 580.172 331.788 578.987 334.858 578.522C341.268 577.779 347.058 579.289 353.098 581.263C354.138 581.612 354.467 582.913 353.697 583.703L308.368 630.75C307.018 632.167 304.857 630.123 306.227 628.706L349.887 583.378C345.217 581.984 340.337 580.845 335.227 581.473C331.527 582.053 335.807 580.613 281.267 633.352C278.107 636.419 275.108 639.858 274.548 644.109C274.038 648.129 257.797 773.681 257.747 774.076C257.747 774.238 257.678 774.424 257.588 774.564L234.328 818.962C233.418 820.705 230.797 819.334 231.697 817.591H231.727Z" fill="black"/>
<path d="M323.278 726.053C322.258 724.008 322.658 722.661 323.168 721.871C398.758 606.425 395.068 611.56 395.788 611.211L430.637 594.576C440.747 588.838 446.748 581.961 447.418 575.246C447.788 571.482 446.398 567.928 443.608 565.488C442.748 564.745 441.448 564.582 440.198 565L413.078 574.735C411.798 575.223 410.568 573.783 411.308 572.574L437.008 529.779C437.428 529.105 438.308 528.85 439.008 529.245C472.498 547.994 471.587 546.809 471.887 547.994C472.187 549.179 474.008 545.182 429.578 615.509C429.198 616.09 428.478 616.323 427.858 616.113C404.108 608.098 404.868 634.863 390.908 684.907C390.788 685.348 354.818 744.105 355.448 743.152C351.028 749.844 326.858 733.186 323.308 726.076L323.278 726.053ZM397.408 613.72C320.568 731.629 325.117 723.126 325.907 724.729C328.747 730.397 345.358 741.364 351.678 741.712C352.488 741.758 352.837 741.596 352.907 741.503L388.048 683.908C401.088 637.116 401.317 604.915 427.647 612.931L442.328 589.79C439.748 592.206 436.378 594.716 431.988 597.178L397.408 613.697V613.72ZM441.498 561.817C442.978 561.817 444.398 562.305 445.518 563.258C449.438 566.673 451.368 571.947 449.978 577.802L468.338 548.9L438.798 532.544L415.978 570.553C440.268 561.98 439.408 561.817 441.518 561.817H441.498Z" fill="black"/>
<path d="M337.578 702.518L367.088 721.151L369.268 717.596L339.598 699.428L337.578 702.518Z" fill="black"/>
<path d="M464.248 546.252L441.677 533.566C441.147 533.264 440.847 532.66 440.937 532.056L445.308 503.921C445.538 502.434 446.397 501.086 447.647 500.25L487.478 473.578C489.248 472.393 491.668 473.671 491.618 475.855C490.778 505.826 491.108 494.302 490.268 524.25C490.228 525.853 489.478 527.34 488.228 528.339L465.868 546.135C465.408 546.507 464.727 546.554 464.217 546.275L464.248 546.252ZM444.028 531.475L464.828 543.162L486.387 525.992C486.947 525.551 487.298 524.877 487.318 524.157L488.647 476.157L449.298 502.713C448.748 503.084 448.348 503.688 448.258 504.362L444.048 531.498L444.028 531.475Z" fill="black"/>
<path d="M432.488 541.536L463.418 558.93C464.168 559.352 465.118 559.086 465.538 558.337L470.868 548.86C471.288 548.111 471.028 547.162 470.278 546.74L439.348 529.346C438.598 528.925 437.648 529.19 437.228 529.939L431.898 539.416C431.478 540.165 431.738 541.114 432.488 541.536Z" fill="#641ED6"/>
<path d="M468.288 509.752L488.227 474.322C489.177 472.626 491.778 474.066 490.808 475.762L470.868 511.193C469.918 512.889 467.308 511.448 468.288 509.752Z" fill="black"/>
<path d="M467.358 520.533C470.318 520.533 472.728 518.13 472.728 515.166C472.728 512.202 470.318 509.799 467.358 509.799C464.398 509.799 461.988 512.202 461.988 515.166C461.988 518.13 464.398 520.533 467.358 520.533Z" fill="#641ED6"/>
<path d="M353.188 699.381C355.428 699.381 357.238 697.571 357.238 695.338C357.238 693.106 355.428 691.296 353.188 691.296C350.957 691.296 349.147 693.106 349.147 695.338C349.147 697.571 350.957 699.381 353.188 699.381Z" fill="#D9FE7C"/>
<path d="M361.018 688.044C363.258 688.044 365.068 686.234 365.068 684.002C365.068 681.769 363.258 679.959 361.018 679.959C358.788 679.959 356.978 681.769 356.978 684.002C356.978 686.234 358.788 688.044 361.018 688.044Z" fill="#D9FE7C"/>
<path d="M329.508 960.96L361.118 857.321L188.288 804.628L156.808 907.876L329.508 960.94V960.96ZM209.108 835.691C217.128 835.691 223.408 843.334 220.938 851.605L242.298 858.273C244.128 858.854 243.337 861.665 241.417 861.108L219.758 854.347C213.318 865.267 196.728 860.597 196.728 848.074C196.728 841.243 202.278 835.691 209.108 835.691ZM198.657 871.911C206.907 871.911 213.248 879.996 210.298 888.407L230.558 894.726C232.188 895.237 231.818 897.63 230.118 897.63C229.678 897.63 230.868 897.909 208.998 891.102C202.238 901.371 186.268 896.538 186.268 884.294C186.268 877.464 191.827 871.911 198.657 871.911Z" fill="#641ED6"/>
<path d="M155.917 910.733L145.998 943.31L318.818 996L328.647 963.8L155.917 910.733Z" fill="#641ED6"/>
<path d="M1127.21 435.174H408.678C406.728 435.174 406.728 432.2 408.678 432.2H1127.21C1129.16 432.2 1129.16 435.174 1127.21 435.174Z" fill="black"/>
<path d="M1105.62 418.26L1088.64 401.648C1087.22 400.254 1089.31 398.163 1090.7 399.534L1107.69 416.146C1109.11 417.54 1107.02 419.631 1105.62 418.26Z" fill="black"/>
<path d="M1088.8 416.332L1105.39 399.348C1106.76 397.931 1108.9 400.022 1107.51 401.416L1090.91 418.4C1089.57 419.794 1087.4 417.749 1088.8 416.332Z" fill="black"/>
<path d="M1065.05 418.679C1059.31 418.679 1054.64 414.009 1054.64 408.27C1054.64 402.532 1059.31 397.792 1065.05 397.792C1070.79 397.792 1075.53 402.485 1075.53 408.27C1075.53 414.055 1070.83 418.679 1065.05 418.679ZM1065.05 400.766C1060.94 400.766 1057.61 404.135 1057.61 408.27C1057.61 412.406 1060.96 415.705 1065.05 415.705C1069.14 415.705 1072.55 412.359 1072.55 408.27C1072.55 404.181 1069.18 400.766 1065.05 400.766Z" fill="black"/>
<path d="M1039.77 409.525H1022.31C1020.36 409.525 1020.36 406.551 1022.31 406.551H1039.77C1041.72 406.551 1041.72 409.525 1039.77 409.525Z" fill="black"/>
<path d="M1037.7 486.775C1028.22 486.775 964.728 486.636 953.988 486.613C952.038 486.613 952.038 483.639 953.988 483.639C963.468 483.639 1026.96 483.778 1037.7 483.801C1038.51 483.801 1039.18 484.475 1039.18 485.288C1039.18 486.101 1038.51 486.775 1037.7 486.775Z" fill="black"/>
<path d="M892.967 486.496C835.967 486.38 857.897 486.427 800.877 486.287C798.927 486.287 798.897 483.313 800.877 483.313C857.877 483.43 835.937 483.383 892.967 483.523C894.917 483.523 894.947 486.496 892.967 486.496Z" fill="black"/>
<path d="M809.098 570.206C810.918 565.211 813.098 560.262 815.538 555.569C816.448 553.849 819.068 555.197 818.168 556.939C815.768 561.54 813.658 566.349 811.868 571.228C811.188 573.063 808.408 572.064 809.078 570.206H809.098ZM823.858 541.884C826.828 537.633 830.198 533.404 833.848 529.385C835.178 527.944 837.358 529.943 836.038 531.383C832.598 535.17 829.338 539.213 826.278 543.58C825.808 544.254 822.718 543.487 823.838 541.884H823.858ZM845.378 518.279C849.438 514.841 853.768 511.635 858.228 508.754C859.878 507.685 861.478 510.194 859.828 511.24C855.488 514.051 851.258 517.164 847.278 520.533C845.768 521.811 843.868 519.534 845.348 518.279H845.378ZM872.218 500.971C877.028 498.694 882.018 496.719 887.088 495.07C888.948 494.442 889.878 497.277 887.998 497.881C883.048 499.484 878.168 501.412 873.468 503.643C871.708 504.479 870.428 501.807 872.188 500.971H872.218Z" fill="black"/>
<path d="M916.488 736.091C915.668 736.044 915.048 735.324 915.118 734.511C915.158 733.698 915.908 733.024 916.698 733.14C921.828 733.512 927.108 733.535 932.308 733.233C933.098 733.14 933.818 733.814 933.868 734.627C933.918 735.44 933.288 736.137 932.468 736.184C927.108 736.509 921.688 736.462 916.458 736.091H916.488ZM947.808 731.328C952.918 730.352 958.008 729.051 962.938 727.448C964.798 726.844 965.728 729.655 963.868 730.259C958.828 731.909 953.598 733.233 948.368 734.232C946.458 734.627 945.878 731.676 947.808 731.328ZM900.638 733.953C895.428 732.908 890.228 731.491 885.188 729.771C883.328 729.144 884.298 726.333 886.138 726.96C891.058 728.633 896.128 730.004 901.218 731.049C902.008 731.212 902.538 732.002 902.378 732.792C902.218 733.628 901.358 734.116 900.638 733.953ZM977.438 721.64C982.138 719.409 986.708 716.83 991.058 714.019C992.708 712.951 994.308 715.436 992.658 716.505C988.198 719.386 983.508 722.035 978.698 724.335C976.908 725.171 975.648 722.499 977.418 721.663L977.438 721.64ZM1003.58 704.679C1007.53 701.311 1011.3 697.64 1014.78 693.783C1016.11 692.343 1018.29 694.317 1016.99 695.781C1013.41 699.731 1009.56 703.495 1005.51 706.933C1004.03 708.211 1002.1 705.957 1003.58 704.679ZM1024.5 681.586C1027.47 677.311 1030.19 672.827 1032.56 668.227C1033.47 666.484 1036.09 667.855 1035.19 669.597C1032.75 674.314 1029.96 678.914 1026.92 683.282C1025.8 684.885 1023.36 683.212 1024.48 681.586H1024.5ZM1038.84 653.892C1040.6 649.036 1042.07 643.971 1043.18 638.906C1043.6 637.001 1046.5 637.628 1046.09 639.557C1044.92 644.761 1043.44 649.942 1041.62 654.914C1040.95 656.749 1038.16 655.75 1038.84 653.892ZM1046.92 625.083C1046.11 625.013 1045.51 624.293 1045.58 623.479C1046.04 618.345 1046.16 613.094 1045.95 607.867C1045.92 607.054 1046.55 606.357 1047.36 606.333C1048.09 606.333 1048.88 606.937 1048.9 607.751C1049.11 612.978 1048.99 618.415 1048.53 623.735C1048.46 624.502 1047.57 625.199 1046.92 625.083ZM1044.3 592.347C1043.41 587.236 1042.21 582.124 1040.7 577.153C1040.11 575.294 1042.95 574.388 1043.53 576.27C1045.09 581.358 1046.34 586.585 1047.23 591.836C1047.36 592.649 1046.83 593.416 1046.02 593.555C1045.11 593.671 1044.44 593.09 1044.3 592.347ZM1035.14 562.539C1032.98 557.822 1030.49 553.199 1027.75 548.785C1026.71 547.112 1029.22 545.555 1030.26 547.228C1033.07 551.735 1035.63 556.475 1037.84 561.331C1038.65 563.12 1035.95 564.351 1035.14 562.562V562.539ZM1019.78 536.657C1018.11 536.657 1018.22 534.38 1007.95 524.715C1006.51 523.368 1008.56 521.207 1009.97 522.555C1013.86 526.202 1017.55 530.129 1020.92 534.218C1021.43 534.845 1021.36 535.774 1020.71 536.309C1020.43 536.541 1020.11 536.657 1019.76 536.657H1019.78ZM995.888 514.795C991.658 511.751 987.218 508.94 982.668 506.477C980.948 505.548 982.338 502.946 984.088 503.875C988.728 506.407 993.288 509.265 997.628 512.402C999.218 513.54 997.498 515.956 995.888 514.795ZM968.488 499.949C963.638 498.09 958.618 496.557 953.578 495.348C951.668 494.884 952.368 492.003 954.248 492.468C959.428 493.699 964.568 495.279 969.538 497.184C971.378 497.881 970.328 500.646 968.468 499.949H968.488Z" fill="black"/>
<path d="M953.707 517.304C889.927 516.56 892.477 517.118 891.667 516.281C890.857 515.445 891.367 518.465 891.777 457.455C891.777 456.665 892.437 455.991 893.267 455.991L954.267 456.572C955.087 456.572 955.757 457.246 955.737 458.059L955.197 515.817C955.197 516.63 954.527 517.28 953.707 517.28V517.304ZM894.197 513.795L952.247 514.33L952.757 459.523L894.707 458.988L894.197 513.795Z" fill="black"/>
<path d="M1045.3 500.506C1053.88 500.506 1060.84 493.547 1060.84 484.963C1060.84 476.379 1053.88 469.42 1045.3 469.42C1036.71 469.42 1029.75 476.379 1029.75 484.963C1029.75 493.547 1036.71 500.506 1045.3 500.506Z" fill="#641ED6"/>
<path d="M806.277 501.339C813.997 497.591 817.227 488.292 813.477 480.57C809.727 472.847 800.427 469.625 792.697 473.373C784.977 477.122 781.757 486.421 785.507 494.143C789.247 501.866 798.557 505.088 806.277 501.339Z" fill="#641ED6"/>
<path d="M918.208 665.206L904.958 660.582C905.698 653.31 905.398 646.108 904.118 639.115L917.248 632.749C918.898 631.959 919.618 629.891 918.828 628.242L905.538 600.687C904.748 599.038 902.728 598.317 900.988 599.107L888.718 605.009C884.088 599.223 878.678 594.066 872.428 589.698L877.208 576.106C877.838 574.317 876.868 572.436 875.078 571.785L846.168 561.655C844.358 560.982 842.448 561.888 841.848 563.677L837.448 576.176C829.338 575.154 821.188 575.433 813.448 576.92C813.258 576.525 807.128 563.746 807.518 564.536C806.688 562.887 804.638 562.167 802.968 562.956L775.308 576.199C773.638 577.036 772.938 579.08 773.728 580.753L779.428 592.625C773.108 597.644 767.548 603.824 763.018 610.77L750.288 606.31C748.428 605.636 746.568 606.542 745.938 608.331L735.808 637.187C735.178 638.975 736.038 640.904 737.898 641.578L750.798 646.085C750.048 654.379 750.678 662.65 752.538 670.433L740.198 676.288C738.548 677.078 737.788 679.169 738.618 680.842L751.908 708.373C752.698 710.023 754.768 710.789 756.418 709.999L769.508 703.796C774.058 709.023 779.398 713.647 785.378 717.643L780.868 730.491C780.238 732.233 781.098 734.208 782.958 734.836L811.818 744.988C813.608 745.593 815.588 744.64 816.208 742.898L820.718 730.05C828.828 730.77 836.898 730.212 844.658 728.516L850.978 741.527C851.768 743.176 853.838 743.943 855.488 743.153C883.398 729.376 883.928 730.282 884.738 728.098C885.138 727.238 885.138 726.239 884.698 725.333L878.208 711.858C883.558 707.281 888.368 701.844 892.368 695.85L905.768 700.567C907.518 701.194 909.488 700.241 910.118 698.476L920.248 669.574C920.878 667.831 919.898 665.926 918.158 665.299L918.208 665.206ZM876.588 669.992C867.218 696.733 837.898 710.766 811.168 701.38C784.418 692.017 770.388 662.697 779.778 635.978C789.188 609.283 818.468 595.204 845.188 604.59C871.938 614 885.978 643.274 876.588 669.992Z" fill="#D9FE7C"/>
<path d="M689.358 686.627H467.428C465.478 686.627 465.478 683.653 467.428 683.653H689.358C691.308 683.653 691.308 686.627 689.358 686.627Z" fill="black"/>
<path d="M662.418 725.566H498.918C496.968 725.566 496.968 722.592 498.918 722.592H662.418C664.378 722.592 664.378 725.566 662.418 725.566Z" fill="black"/>
<path d="M1228.51 532C1228.51 532 1226.26 557.054 1206 562.013C1226.26 566.94 1228.51 592.027 1228.51 592.027C1228.51 592.027 1230.76 566.973 1251.02 562.013C1230.76 557.054 1228.51 532 1228.51 532Z" fill="#641ED6"/>
<path d="M836.147 0C836.147 0 834.538 17.0009 820.068 20.3661C834.538 23.7095 836.147 40.732 836.147 40.732C836.147 40.732 837.748 23.7314 852.228 20.3661C837.748 17.0009 836.147 0 836.147 0Z" fill="#641ED6"/>
<path d="M62.9976 731C62.9976 731 60.3976 758.13 36.9976 763.5C60.3976 768.835 62.9976 796 62.9976 796C62.9976 796 65.5976 768.87 88.9976 763.5C65.5976 758.13 62.9976 731 62.9976 731Z" fill="#641ED6"/>
<path d="M1241.8 73C1241.8 73 1239.12 100.738 1215 106.229C1239.12 111.684 1241.8 139.458 1241.8 139.458C1241.8 139.458 1244.48 111.72 1268.6 106.229C1244.48 100.738 1241.8 73 1241.8 73Z" fill="#641ED6"/>
<path d="M157.078 439C157.078 439 155.468 456.001 140.998 459.366C155.468 462.71 157.078 479.732 157.078 479.732C157.078 479.732 158.687 462.731 173.157 459.366C158.687 456.001 157.078 439 157.078 439Z" fill="#641ED6"/>
<path d="M31.3975 206.078C27.3475 197.677 24.6976 190.294 23.2776 183.573C16.6876 181.918 9.35752 179.194 0.907516 175.248C-0.292485 174.688 -0.312485 172.957 0.907516 172.397C9.30752 168.349 16.6577 165.701 23.3277 164.275C24.7477 157.503 27.3975 150.171 31.3975 141.897C31.9775 140.701 33.6876 140.701 34.2476 141.897C38.2376 150.375 40.9877 157.707 42.6177 164.25C49.2377 165.625 56.5877 168.272 65.1177 172.371C66.3077 172.931 66.3077 174.662 65.1177 175.223C56.4077 179.296 49.2575 181.969 42.6675 183.598C41.0375 190.141 38.3676 197.295 34.2476 206.053C33.6876 207.249 31.9575 207.275 31.3975 206.053V206.078ZM5.35771 173.797C37.7077 188.283 18.4377 169.851 32.8177 201.648C36.2277 194.087 38.4677 187.774 39.8477 181.969C39.9677 181.383 40.4276 180.925 41.0176 180.798C46.8476 179.423 53.1575 177.183 60.6875 173.822C53.2775 170.462 46.8476 168.298 41.0376 167.203C40.4276 167.076 39.9477 166.618 39.7977 166.007C38.4177 160.227 36.1277 153.761 32.8177 146.353C25.0777 163.41 27.4276 166.719 24.9776 167.203C19.1276 168.349 12.6577 170.513 5.35771 173.822V173.797Z" fill="black"/>
<path d="M79.1875 222.855C74.3075 225.146 69.5475 227.03 64.9875 228.099C63.9175 232.656 62.0075 237.443 59.7175 242.305C57.4075 237.494 55.5675 232.707 54.6775 228.074C50.1275 227.005 45.3676 225.146 40.5076 222.855C45.3176 220.538 50.0775 218.705 54.7075 217.814C55.6275 213.181 57.4275 208.42 59.7175 203.634C62.0075 208.496 63.8975 213.283 64.9675 217.814C69.5975 218.705 74.3775 220.564 79.1875 222.855Z" fill="black"/>
<path d="M1286.44 774.846C1272.09 756.873 1245.72 752.647 1226.48 765.249C1204.87 779.403 1199.55 808.477 1214.42 829.302C1228.85 849.541 1257.02 854.251 1277.35 839.74C1298.33 824.77 1302.65 795.188 1286.44 774.846ZM1233.07 834.801C1232.21 834.801 1231.52 834.114 1231.52 833.248C1231.39 814.383 1225.56 795.34 1215.13 779.633C1214.64 778.92 1214.85 777.952 1215.56 777.469C1216.27 776.985 1217.24 777.189 1217.72 777.901C1228.49 794.118 1234.5 813.772 1234.62 833.223C1234.62 834.088 1233.94 834.801 1233.07 834.801ZM1261.24 825.178C1261.24 825.178 1261.09 825.178 1261.04 825.178C1260.28 825.178 1259.59 824.618 1259.49 823.828C1256.71 803.589 1247.12 784.597 1232.46 770.391C1231.85 769.78 1231.82 768.787 1232.43 768.176C1233.04 767.565 1234.04 767.54 1234.65 768.151C1249.82 782.866 1259.74 802.494 1262.62 823.421C1262.75 824.287 1262.14 825.076 1261.3 825.178H1261.24ZM1281.5 804.505C1281.5 804.505 1281.27 804.531 1281.17 804.531C1280.46 804.531 1279.8 804.022 1279.65 803.309C1276.16 787.397 1265.72 772.912 1251.75 764.561C1251.01 764.128 1250.76 763.161 1251.22 762.423C1251.65 761.684 1252.62 761.43 1253.35 761.888C1268.07 770.671 1279.03 785.921 1282.7 802.672C1282.88 803.513 1282.34 804.353 1281.5 804.531V804.505Z" fill="#D9FE7C"/>
<path d="M1296.75 836.125C1291.28 836.125 1285.8 833.936 1281.94 829.862C1277.53 825.254 1275.55 819.017 1276.44 812.754C1277.35 806.517 1281.02 801.094 1286.54 797.937C1294.79 793.202 1305.71 795.035 1311.97 802.189C1316.29 807.128 1317.97 813.645 1316.6 820.01C1315.23 826.4 1310.97 831.644 1304.94 834.368C1302.35 835.54 1299.55 836.125 1296.75 836.125ZM1296.54 798.472C1293.64 798.472 1290.72 799.185 1288.12 800.687C1283.46 803.36 1280.33 807.943 1279.57 813.212C1278.81 818.508 1280.48 823.778 1284.23 827.673C1289.19 832.866 1297.16 834.445 1303.67 831.492C1308.79 829.175 1312.37 824.745 1313.55 819.348C1314.72 813.951 1313.29 808.452 1309.63 804.277C1306.32 800.483 1301.46 798.472 1296.6 798.472H1296.54Z" fill="black"/>
</svg>
